<?xml version="1.0" encoding="utf-8"?>
<!-- Generator: Adobe Illustrator 21.0.2, SVG Export Plug-In . SVG Version: 6.00 Build 0)  -->
<svg version="1.1" id="Layer_1" xmlns="http://www.w3.org/2000/svg" xmlns:xlink="http://www.w3.org/1999/xlink" x="0px" y="0px"
	 viewBox="0 0 1385 1794" style="enable-background:new 0 0 1385 1794;" xml:space="preserve">
<style type="text/css">
	.st0{opacity:0.55;}
	.st1{fill:#C4F256;}
</style>
<title>background</title>
<g id="Canvas" class="st0">
	<g id="Group">
		<g id="Group-2">
			<g id="Pattern">
				<g id="Vector">
					<path id="path0_stroke" class="st1" d="M729.6,1520.5c0,4.1-3.4,7.5-7.5,7.5l0,0v3c5.8,0,10.5-4.7,10.5-10.5H729.6z
						 M722.1,1528c-4.1,0-7.5-3.4-7.5-7.5l0,0h-3c0,5.8,4.7,10.5,10.5,10.5V1528z M714.6,1520.5c0-4.1,3.4-7.5,7.5-7.5l0,0v-3
						c-5.8,0-10.5,4.7-10.5,10.5l0,0H714.6z M722.1,1513c4.1,0,7.5,3.4,7.5,7.5l0,0h3c0-5.8-4.7-10.5-10.5-10.5l0,0V1513z"/>
				</g>
				<g id="Vector-2">
					<path id="path1_stroke" class="st1" d="M480.3,1691.9c0,2.8-2.3,5.1-5.1,5.1v2c3.9,0,7.1-3.2,7.1-7.1L480.3,1691.9z
						 M475.2,1697c-2.8,0-5.1-2.3-5.1-5.1h-2c0,3.9,3.2,7.1,7.1,7.1L475.2,1697z M470.1,1691.9c0-2.8,2.3-5.1,5.1-5.1v-2
						c-3.9,0-7.1,3.2-7.1,7.1L470.1,1691.9z M475.2,1686.8c2.8,0,5.1,2.3,5.1,5.1h2c0-3.9-3.2-7.1-7.1-7.1L475.2,1686.8z"/>
				</g>
				<g id="Vector-3">
					<path id="path2_stroke" class="st1" d="M1124.6,1469.2c0,1.7-1.3,3-3,3v3c3.3,0,6-2.7,6-6H1124.6z M1121.6,1472.2
						c-1.7,0-3-1.3-3-3h-3c0,3.3,2.7,6,6,6V1472.2z M1118.6,1469.2c0-1.7,1.3-3,3-3v-3c-3.3,0-6,2.7-6,6H1118.6z M1121.6,1466.2
						c1.7,0,3,1.3,3,3h3c0-3.3-2.7-6-6-6V1466.2z"/>
				</g>
				<g id="Vector-4">
					<path id="path3_stroke" class="st1" d="M795.8,1296.4c0,4.1-3.4,7.5-7.5,7.5l0,0v3c5.8,0,10.5-4.7,10.5-10.5H795.8z
						 M788.3,1303.9c-4.1,0-7.5-3.4-7.5-7.5l0,0h-3c0,5.8,4.7,10.5,10.5,10.5V1303.9z M780.8,1296.4c0-4.1,3.4-7.5,7.5-7.5l0,0v-3
						c-5.8,0-10.5,4.7-10.5,10.5l0,0H780.8z M788.3,1288.9c4.1,0,7.5,3.4,7.5,7.5l0,0h3c0-5.8-4.7-10.5-10.5-10.5l0,0V1288.9z"/>
				</g>
				<g id="Vector-5">
					<path id="path4_stroke" class="st1" d="M922.9,1688.8c0,4.1-3.4,7.5-7.5,7.5l0,0v3c5.8,0,10.5-4.7,10.5-10.5l0,0H922.9z
						 M915.4,1696.3c-4.1,0-7.5-3.4-7.5-7.5l0,0h-3c0,5.8,4.7,10.5,10.5,10.5l0,0V1696.3z M907.9,1688.8c0-4.1,3.4-7.5,7.5-7.5l0,0
						v-3c-5.8,0-10.5,4.7-10.5,10.5l0,0H907.9z M915.4,1681.3c4.1,0,7.5,3.4,7.5,7.5l0,0h3c0-5.8-4.7-10.5-10.5-10.5l0,0V1681.3z"/>
				</g>
				<g id="Vector-6">
					<path id="path4_stroke-2" class="st1" d="M601.6,1460.5c0,4.1-3.4,7.5-7.5,7.5l0,0v3c5.8,0,10.5-4.7,10.5-10.5H601.6z
						 M594.1,1468c-4.1,0-7.5-3.4-7.5-7.5l0,0h-3c0,5.8,4.7,10.5,10.5,10.5V1468z M586.6,1460.5c0-4.1,3.4-7.5,7.5-7.5l0,0v-3
						c-5.8,0-10.5,4.7-10.5,10.5l0,0H586.6z M594.1,1453c4.1,0,7.5,3.4,7.5,7.5l0,0h3c0-5.8-4.7-10.5-10.5-10.5l0,0V1453z"/>
				</g>
				<g id="Vector-7">
					<path id="path4_stroke-3" class="st1" d="M482.6,1773.5c0,4.1-3.4,7.5-7.5,7.5l0,0v3c5.8,0,10.5-4.7,10.5-10.5l0,0H482.6z
						 M475.1,1781c-4.1,0-7.5-3.4-7.5-7.5l0,0h-3c0,5.8,4.7,10.5,10.5,10.5l0,0V1781z M467.6,1773.5c0-4.1,3.4-7.5,7.5-7.5l0,0v-3
						c-5.8,0-10.5,4.7-10.5,10.5l0,0H467.6z M475.1,1766c4.1,0,7.5,3.4,7.5,7.5l0,0h3c0-5.8-4.7-10.5-10.5-10.5l0,0V1766z"/>
				</g>
				<g id="Vector-8">
					<path id="path5_stroke" class="st1" d="M1093.8,1259.3c0,4.1-3.4,7.5-7.5,7.5v3c5.8,0,10.5-4.7,10.5-10.5H1093.8z
						 M1086.3,1266.8c-4.1,0-7.5-3.4-7.5-7.5h-3c0,5.8,4.7,10.5,10.5,10.5V1266.8z M1078.8,1259.3c0-4.1,3.4-7.5,7.5-7.5l0,0v-3
						c-5.8,0-10.5,4.7-10.5,10.5l0,0H1078.8z M1086.3,1251.8c4.1,0,7.5,3.4,7.5,7.5l0,0h3c0-5.8-4.7-10.5-10.5-10.5l0,0V1251.8z"/>
				</g>
				<g id="Vector-9">
					<path id="path5_stroke-2" class="st1" d="M1381.8,1278.8c0,4.1-3.4,7.5-7.5,7.5v3c5.8,0,10.5-4.7,10.5-10.5H1381.8z
						 M1374.3,1286.3c-4.1,0-7.5-3.4-7.5-7.5h-3c0,5.8,4.7,10.5,10.5,10.5V1286.3z M1366.8,1278.8c0-4.1,3.4-7.5,7.5-7.5l0,0v-3
						c-5.8,0-10.5,4.7-10.5,10.5l0,0H1366.8z M1374.3,1271.3c4.1,0,7.5,3.4,7.5,7.5l0,0h3c0-5.8-4.7-10.5-10.5-10.5l0,0V1271.3z"/>
				</g>
				<g id="Vector-10">
					<path id="path6_stroke" class="st1" d="M853.2,1617.2c0,6.3-5.1,11.4-11.4,11.4c0,0,0,0,0,0v4.6c8.8,0,16-7.2,16-16
						L853.2,1617.2z M841.8,1628.7c-6.3,0-11.4-5.1-11.4-11.4l0,0h-4.5c0,8.8,7.2,16,16,16L841.8,1628.7z M830.4,1617.2
						c0-6.3,5.1-11.4,11.4-11.4c0,0,0,0,0,0v-4.6c-8.8,0-16,7.2-16,16L830.4,1617.2z M841.8,1605.8c6.3,0,11.4,5.1,11.4,11.4l0,0
						h4.5c0-8.8-7.2-16-16-16L841.8,1605.8z"/>
				</g>
				<g id="Vector-11">
					<path id="path7_stroke" class="st1" d="M975.9,1173c0,6.3-5.1,11.4-11.4,11.4c0,0,0,0,0,0v4.6c8.8,0,16-7.2,16-16H975.9z
						 M964.5,1184.4c-6.3,0-11.4-5.1-11.4-11.4l0,0h-4.5c0,8.8,7.2,16,16,16L964.5,1184.4z M953.1,1173c0-6.3,5.1-11.4,11.4-11.4
						c0,0,0,0,0,0v-4.6c-8.8,0-16,7.2-16,16H953.1z M964.5,1161.6c6.3,0,11.4,5.1,11.4,11.4l0,0h4.5c0-8.8-7.2-16-16-16
						L964.5,1161.6z"/>
				</g>
				<g id="Vector-12">
					<path id="path8_stroke" class="st1" d="M266.6,1043.5c0,4.1-3.4,7.5-7.5,7.5l0,0v3c5.8,0,10.5-4.7,10.5-10.5H266.6z
						 M259.1,1051c-4.1,0-7.5-3.4-7.5-7.5l0,0h-3c0,5.8,4.7,10.5,10.5,10.5V1051z M251.6,1043.5c0-4.1,3.4-7.5,7.5-7.5l0,0v-3
						c-5.8,0-10.5,4.7-10.5,10.5H251.6z M259.1,1036c4.1,0,7.5,3.4,7.5,7.5l0,0h3c0-5.8-4.7-10.5-10.5-10.5V1036z"/>
				</g>
				<g id="Vector-13">
					<path id="path9_stroke" class="st1" d="M116.6,1163.5c0,2.5-2,4.5-4.5,4.5l0,0v3c4.1,0,7.5-3.4,7.5-7.5l0,0H116.6z M112.1,1168
						c-2.5,0-4.5-2-4.5-4.5l0,0h-3c0,4.1,3.4,7.5,7.5,7.5l0,0V1168z M107.6,1163.5c0-2.5,2-4.5,4.5-4.5l0,0v-3
						c-4.1,0-7.5,3.4-7.5,7.5l0,0H107.6z M112.1,1159c2.5,0,4.5,2,4.5,4.5l0,0h3c0-4.1-3.4-7.5-7.5-7.5l0,0V1159z"/>
				</g>
				<g id="Vector-14">
					<path id="path10_stroke" class="st1" d="M1196.1,1563.3c0,4.1-3.4,7.5-7.5,7.5l0,0v3c5.8,0,10.5-4.7,10.5-10.5l0,0H1196.1z
						 M1188.6,1570.8c-4.1,0-7.5-3.4-7.5-7.5l0,0h-3c0,5.8,4.7,10.5,10.5,10.5l0,0V1570.8z M1181.1,1563.3c0-4.1,3.4-7.5,7.5-7.5
						l0,0v-3c-5.8,0-10.5,4.7-10.5,10.5l0,0H1181.1z M1188.6,1555.8c4.1,0,7.5,3.4,7.5,7.5l0,0h3c0-5.8-4.7-10.5-10.5-10.5l0,0
						V1555.8z"/>
				</g>
				<g id="Vector-15">
					<path id="path11_stroke" class="st1" d="M718.8,980.5c0,4.1-3.4,7.5-7.5,7.5v3c5.8,0,10.5-4.7,10.5-10.5H718.8z M711.3,988
						c-4.1,0-7.5-3.4-7.5-7.5h-3c0,5.8,4.7,10.5,10.5,10.5V988z M703.8,980.5c0-4.1,3.4-7.5,7.5-7.5l0,0v-3
						c-5.8,0-10.5,4.7-10.5,10.5H703.8z M711.3,973c4.1,0,7.5,3.4,7.5,7.5l0,0h3c0-5.8-4.7-10.5-10.5-10.5V973z"/>
				</g>
				<g id="Vector-16">
					<path id="path12_stroke" class="st1" d="M956.9,1255.6c0,2.2-1.8,3.9-3.9,3.9l0,0v1.6c3,0,5.5-2.5,5.5-5.5L956.9,1255.6z
						 M953,1259.5c-2.2,0-3.9-1.8-3.9-3.9l0,0h-1.6c0,3,2.5,5.5,5.5,5.5L953,1259.5z M949.1,1255.6c0-2.2,1.8-3.9,3.9-3.9l0,0v-1.6
						c-3,0-5.5,2.5-5.5,5.5L949.1,1255.6z M953,1251.7c2.2,0,3.9,1.8,3.9,3.9l0,0h1.6c0-3-2.5-5.5-5.5-5.5L953,1251.7z"/>
				</g>
				<g id="Vector-17">
					<path id="path12_stroke-2" class="st1" d="M660.7,1204.2c0,2.2-1.8,3.9-3.9,3.9l0,0v1.6c3,0,5.5-2.5,5.5-5.5L660.7,1204.2z
						 M656.8,1208.2c-2.2,0-3.9-1.8-3.9-3.9l0,0h-1.6c0,3,2.5,5.5,5.5,5.5L656.8,1208.2z M652.9,1204.2c0-2.2,1.8-3.9,3.9-3.9l0,0
						v-1.6c-3,0-5.5,2.5-5.5,5.5L652.9,1204.2z M656.8,1200.3c2.2,0,3.9,1.8,3.9,3.9l0,0h1.6c0-3-2.5-5.5-5.5-5.5L656.8,1200.3z"/>
				</g>
				<g id="Vector-18">
					<path id="path13_stroke" class="st1" d="M168.6,1683.1c0,4.1-3.4,7.5-7.5,7.5l0,0v3c5.8,0,10.5-4.7,10.5-10.5l0,0H168.6z
						 M161.1,1690.6c-4.1,0-7.5-3.4-7.5-7.5l0,0h-3c0,5.8,4.7,10.5,10.5,10.5l0,0V1690.6z M153.6,1683.1c0-4.1,3.4-7.5,7.5-7.5l0,0
						v-3c-5.8,0-10.5,4.7-10.5,10.5l0,0H153.6z M161.1,1675.6c4.1,0,7.5,3.4,7.5,7.5l0,0h3c0-5.8-4.7-10.5-10.5-10.5l0,0V1675.6z"/>
				</g>
				<g id="Vector-19">
					<path id="path14_stroke" class="st1" d="M1280.5,1367.2c0,4.1-3.4,7.5-7.5,7.5l0,0v3c5.8,0,10.5-4.7,10.5-10.5H1280.5z
						 M1273,1374.7c-4.1,0-7.5-3.4-7.5-7.5l0,0h-3c0,5.8,4.7,10.5,10.5,10.5V1374.7z M1265.5,1367.2c0-4.1,3.4-7.5,7.5-7.5l0,0v-3
						c-5.8,0-10.5,4.7-10.5,10.5H1265.5z M1273,1359.7c4.1,0,7.5,3.4,7.5,7.5l0,0h3c0-5.8-4.7-10.5-10.5-10.5V1359.7z"/>
				</g>
				<g id="Vector-20">
					<path id="path15_stroke" class="st1" d="M323.5,1725.6l0.5,0.8l0.8-0.6l-0.5-0.8L323.5,1725.6z M314.1,1732l-0.8,0.6l0.5,0.8
						l0.8-0.6L314.1,1732z M307.8,1722.6l-0.5-0.8l-0.8,0.6l0.5,0.8L307.8,1722.6z M317.1,1716.2l0.8-0.6l-0.5-0.8l-0.8,0.6
						L317.1,1716.2z M322.9,1724.8l-9.3,6.4l1.1,1.6l9.3-6.4L322.9,1724.8z M314.9,1731.4l-6.4-9.3l-1.6,1.1l6.4,9.3L314.9,1731.4z
						 M308.3,1723.4l9.3-6.4l-1.1-1.6l-9.3,6.4L308.3,1723.4z M316.3,1716.8l6.4,9.3l1.6-1.1l-6.4-9.3L316.3,1716.8z"/>
				</g>
				<g id="Vector-21">
					<path id="path16_stroke" class="st1" d="M827.6,1152.2h1.5v-1.5h-1.5V1152.2z M827.6,1169.7v1.5h1.5v-1.5H827.6z M810.1,1169.7
						h-1.5v1.5h1.5V1169.7z M810.1,1152.2v-1.5h-1.5v1.5H810.1z M826.1,1152.2v17.5h3v-17.5H826.1z M827.6,1168.2h-17.5v3h17.5
						V1168.2z M811.6,1169.7v-17.5h-3v17.5H811.6z M810.1,1153.7h17.5v-3h-17.5V1153.7z"/>
				</g>
				<g id="Vector-22">
					<path id="path17_stroke" class="st1" d="M533.7,1088.6h1.5v-1.5h-1.5V1088.6z M533.7,1106.1v1.5h1.5v-1.5H533.7z M516.2,1106.1
						h-1.5v1.5h1.5V1106.1z M516.2,1088.6v-1.5h-1.5v1.5H516.2z M532.2,1088.6v17.5h3v-17.5H532.2z M533.7,1104.6h-17.5v3h17.5
						V1104.6z M517.7,1106.1v-17.5h-3v17.5H517.7z M516.2,1090.1h17.5v-3h-17.5V1090.1z"/>
				</g>
				<g id="Vector-23">
					<path id="path18_stroke" class="st1" d="M1113.4,962l0.7-0.7l-0.7-0.7l-0.7,0.7L1113.4,962z M1121.1,969.7l0.7,0.7l0.7-0.7
						l-0.7-0.7L1121.1,969.7z M1113.4,977.4l-0.7,0.7l0.7,0.7l0.7-0.7L1113.4,977.4z M1105.7,969.7l-0.7-0.7l-0.7,0.7l0.7,0.7
						L1105.7,969.7z M1112.7,962.7l7.7,7.7l1.3-1.3l-7.7-7.7L1112.7,962.7z M1120.4,969.1l-7.7,7.7l1.3,1.3l7.7-7.7L1120.4,969.1z
						 M1114,976.8l-7.7-7.7l-1.3,1.3l7.7,7.7L1114,976.8z M1106.3,970.4l7.7-7.7l-1.3-1.3l-7.7,7.7L1106.3,970.4z"/>
				</g>
				<g id="Vector-24">
					<path id="path19_stroke" class="st1" d="M1010.3,1065.5l1.1-1.1l-1.1-1.1l-1.1,1.1L1010.3,1065.5z M1022.7,1077.8l1.1,1.1
						l1.1-1.1l-1.1-1.1L1022.7,1077.8z M1010.3,1090.2l-1.1,1.1l1.1,1.1l1.1-1.1L1010.3,1090.2z M997.9,1077.8l-1.1-1.1l-1.1,1.1
						l1.1,1.1L997.9,1077.8z M1009.2,1066.5l12.4,12.4l2.1-2.1l-12.4-12.4L1009.2,1066.5z M1021.6,1076.8l-12.4,12.4l2.1,2.1
						l12.4-12.4L1021.6,1076.8z M1011.4,1089.1l-12.4-12.4l-2.1,2.1l12.4,12.4L1011.4,1089.1z M999,1078.9l12.4-12.4l-2.1-2.1
						l-12.4,12.4L999,1078.9z"/>
				</g>
				<g id="Vector-25">
					<path id="path20_stroke" class="st1" d="M1014.3,1505.8l1.1-1.1l-1.1-1.1l-1.1,1.1L1014.3,1505.8z M1026.6,1518.1l1.1,1.1
						l1.1-1.1l-1.1-1.1L1026.6,1518.1z M1014.3,1530.5l-1.1,1.1l1.1,1.1l1.1-1.1L1014.3,1530.5z M1001.9,1518.1l-1.1-1.1l-1.1,1.1
						l1.1,1.1L1001.9,1518.1z M1013.2,1506.8l12.4,12.4l2.1-2.1l-12.4-12.4L1013.2,1506.8z M1025.6,1517.1l-12.4,12.4l2.1,2.1
						l12.4-12.4L1025.6,1517.1z M1015.3,1529.4l-12.4-12.4l-2.1,2.1l12.4,12.4L1015.3,1529.4z M1003,1519.2l12.4-12.4l-2.1-2.1
						l-12.4,12.4L1003,1519.2z"/>
				</g>
				<g id="Vector-26">
					<path id="path21_stroke" class="st1" d="M920,1326.5l0.6-0.6l-0.6-0.6l-0.6,0.6L920,1326.5z M927.5,1334l0.6,0.6l0.6-0.6
						l-0.6-0.6L927.5,1334z M920,1341.5l-0.6,0.6l0.6,0.6l0.6-0.6L920,1341.5z M912.5,1334l-0.6-0.6l-0.6,0.6l0.6,0.6L912.5,1334z
						 M919.4,1327.2l7.5,7.5l1.3-1.3l-7.5-7.5L919.4,1327.2z M926.9,1333.4l-7.5,7.5l1.3,1.3l7.5-7.5L926.9,1333.4z M920.6,1340.9
						l-7.5-7.5l-1.3,1.3l7.5,7.5L920.6,1340.9z M913.1,1334.7l7.5-7.5l-1.3-1.3l-7.5,7.5L913.1,1334.7z"/>
				</g>
				<g id="Vector-27">
					<path id="path21_stroke-2" class="st1" d="M714.6,1097.5l0.6-0.6l-0.6-0.6l-0.6,0.6L714.6,1097.5z M722.1,1105l0.6,0.6l0.6-0.6
						l-0.6-0.6L722.1,1105z M714.6,1112.5l-0.6,0.6l0.6,0.6l0.6-0.6L714.6,1112.5z M707.1,1105l-0.6-0.6l-0.6,0.6l0.6,0.6
						L707.1,1105z M714,1098.2l7.5,7.5l1.3-1.3l-7.5-7.5L714,1098.2z M721.5,1104.4l-7.5,7.5l1.3,1.3l7.5-7.5L721.5,1104.4z
						 M715.3,1111.9l-7.5-7.5l-1.3,1.3l7.5,7.5L715.3,1111.9z M707.8,1105.7l7.5-7.5l-1.3-1.3l-7.5,7.5L707.8,1105.7z"/>
				</g>
				<g id="Vector-28">
					<path id="path21_stroke-3" class="st1" d="M144.6,1077.5l0.6-0.6l-0.6-0.6l-0.6,0.6L144.6,1077.5z M152.1,1085l0.6,0.6l0.6-0.6
						l-0.6-0.6L152.1,1085z M144.6,1092.5l-0.6,0.6l0.6,0.6l0.6-0.6L144.6,1092.5z M137.1,1085l-0.6-0.6l-0.6,0.6l0.6,0.6
						L137.1,1085z M144,1078.2l7.5,7.5l1.3-1.3l-7.5-7.5L144,1078.2z M151.5,1084.4l-7.5,7.5l1.3,1.3l7.5-7.5L151.5,1084.4z
						 M145.3,1091.9l-7.5-7.5l-1.3,1.3l7.5,7.5L145.3,1091.9z M137.8,1085.7l7.5-7.5l-1.3-1.3l-7.5,7.5L137.8,1085.7z"/>
				</g>
				<g id="Vector-29">
					<path id="path22_stroke" class="st1" d="M635.4,1619l1.1-1.1l-1.1-1.1l-1.1,1.1L635.4,1619z M647.7,1631.4l1.1,1.1l1.1-1.1
						l-1.1-1.1L647.7,1631.4z M635.4,1643.7l-1.1,1.1l1.1,1.1l1.1-1.1L635.4,1643.7z M623,1631.4l-1.1-1.1l-1.1,1.1l1.1,1.1
						L623,1631.4z M634.3,1620.1l12.4,12.4l2.1-2.1l-12.4-12.4L634.3,1620.1z M646.7,1630.3l-12.4,12.4l2.1,2.1l12.4-12.4
						L646.7,1630.3z M636.4,1642.7l-12.4-12.4l-2.1,2.1l12.4,12.4L636.4,1642.7z M624.1,1632.4l12.4-12.4l-2.1-2.1l-12.4,12.4
						L624.1,1632.4z"/>
				</g>
				<g id="Vector-30">
					<path id="path22_stroke-2" class="st1" d="M162.5,1766.5l1.1-1.1l-1.1-1.1l-1.1,1.1L162.5,1766.5z M174.9,1778.9l1.1,1.1
						l1.1-1.1l-1.1-1.1L174.9,1778.9z M162.5,1791.3l-1.1,1.1l1.1,1.1l1.1-1.1L162.5,1791.3z M150.1,1778.9l-1.1-1.1l-1.1,1.1
						l1.1,1.1L150.1,1778.9z M161.4,1767.6l12.4,12.4l2.1-2.1l-12.4-12.4L161.4,1767.6z M173.8,1777.8l-12.4,12.4l2.1,2.1l12.4-12.3
						L173.8,1777.8z M163.6,1790.2l-12.4-12.4l-2.1,2.1l12.4,12.4L163.6,1790.2z M151.2,1780l12.4-12.4l-2.1-2.1l-12.4,12.4
						L151.2,1780z"/>
				</g>
				<g id="Vector-31">
					<path id="path23_stroke" class="st1" d="M1300.2,1696.5c0,4.1-3.4,7.5-7.5,7.5l0,0v3c5.8,0,10.5-4.7,10.5-10.5l0,0H1300.2z
						 M1292.7,1704c-4.1,0-7.5-3.4-7.5-7.5l0,0h-3c0,5.8,4.7,10.5,10.5,10.5l0,0V1704z M1285.2,1696.5c0-4.1,3.4-7.5,7.5-7.5l0,0v-3
						c-5.8,0-10.5,4.7-10.5,10.5l0,0H1285.2z M1292.7,1689c4.1,0,7.5,3.4,7.5,7.5l0,0h3c0-5.8-4.7-10.5-10.5-10.5l0,0V1689z"/>
				</g>
				<g id="Vector-32">
					<path id="path24_stroke" class="st1" d="M837.6,1768c0,2.2-1.8,4-4,4v3c3.9,0,7-3.1,7-7H837.6z M833.6,1772c-2.2,0-4-1.8-4-4
						h-3c0,3.9,3.1,7,7,7V1772z M829.6,1768c0-2.2,1.8-4,4-4v-3c-3.9,0-7,3.1-7,7H829.6z M833.6,1764c2.2,0,4,1.8,4,4h3
						c0-3.9-3.1-7-7-7V1764z"/>
				</g>
				<g id="Vector-33">
					<path id="path25_stroke" class="st1" d="M309.5,1124.5l1.1-1.1l-1.1-1.1l-1.1,1.1L309.5,1124.5z M321.9,1136.9l1.1,1.1l1.1-1.1
						l-1.1-1.1L321.9,1136.9z M309.5,1149.3l-1.1,1.1l1.1,1.1l1.1-1.1L309.5,1149.3z M297.1,1136.9l-1.1-1.1l-1.1,1.1l1.1,1.1
						L297.1,1136.9z M308.4,1125.6l12.4,12.4l2.1-2.1l-12.4-12.4L308.4,1125.6z M320.8,1135.8l-12.4,12.4l2.1,2.1l12.4-12.3
						L320.8,1135.8z M310.6,1148.2l-12.4-12.4l-2.1,2.1l12.4,12.4L310.6,1148.2z M298.2,1138l12.4-12.4l-2.1-2.1l-12.4,12.4
						L298.2,1138z"/>
				</g>
				<g id="Vector-34">
					<path id="path25_stroke-2" class="st1" d="M389.5,983.5l1.1-1.1l-1.1-1.1l-1.1,1.1L389.5,983.5z M401.9,995.9l1.1,1.1l1.1-1.1
						l-1.1-1.1L401.9,995.9z M389.5,1008.3l-1.1,1.1l1.1,1.1l1.1-1.1L389.5,1008.3z M377.1,995.9l-1.1-1.1l-1.1,1.1l1.1,1.1
						L377.1,995.9z M388.4,984.6l12.4,12.4l2.1-2.1l-12.4-12.4L388.4,984.6z M400.8,994.8l-12.4,12.4l2.1,2.1l12.4-12.3L400.8,994.8
						z M390.6,1007.2l-12.4-12.4l-2.1,2.2l12.4,12.4L390.6,1007.2z M378.2,997l12.4-12.4l-2.1-2.1l-12.4,12.4L378.2,997z"/>
				</g>
				<g id="Vector-35">
					<path id="path26_stroke" class="st1" d="M28.4,1234.5l0.8-0.8l-0.8-0.8l-0.8,0.8L28.4,1234.5z M37.8,1243.9l0.8,0.8l0.8-0.8
						l-0.8-0.8L37.8,1243.9z M28.4,1253.4l-0.8,0.8l0.8,0.8l0.8-0.8L28.4,1253.4z M18.9,1243.9l-0.8-0.8l-0.8,0.8l0.8,0.8
						L18.9,1243.9z M27.5,1235.3l9.5,9.5l1.6-1.6l-9.5-9.5L27.5,1235.3z M37,1243.1l-9.5,9.5l1.6,1.6l9.5-9.5L37,1243.1z
						 M29.2,1252.6l-9.5-9.5l-1.6,1.6l9.5,9.5L29.2,1252.6z M19.7,1244.8l9.5-9.5l-1.6-1.6l-9.5,9.5L19.7,1244.8z"/>
				</g>
				<g id="Vector-36">
					<path id="path27_stroke" class="st1" d="M15.4,1548.5l1.1-1.1l-1.1-1.1l-1.1,1.1L15.4,1548.5z M27.7,1560.9l1.1,1.1l1.1-1.1
						l-1.1-1.1L27.7,1560.9z M15.4,1573.3l-1.1,1.1l1.1,1.1l1.1-1.1L15.4,1573.3z M3,1560.9l-1.1-1.1l-1.1,1.1l1.1,1.1L3,1560.9z
						 M14.3,1549.6l12.4,12.4l2.1-2.1l-12.4-12.4L14.3,1549.6z M26.7,1559.8l-12.4,12.4l2.1,2.1l12.4-12.3L26.7,1559.8z
						 M16.4,1572.2l-12.4-12.4l-2.1,2.2l12.4,12.4L16.4,1572.2z M4.1,1562l12.4-12.4l-2.1-2.1l-12.4,12.3L4.1,1562z"/>
				</g>
				<g id="Vector-37">
					<path id="path28_stroke" class="st1" d="M1276.9,1187.4l1.1-1.1l-1.1-1.1l-1.1,1.1L1276.9,1187.4z M1289.3,1199.8l1.1,1.1
						l1.1-1.1l-1.1-1.1L1289.3,1199.8z M1276.9,1212.1l-1.1,1.1l1.1,1.1l1.1-1.1L1276.9,1212.1z M1264.5,1199.8l-1.1-1.1l-1.1,1.1
						l1.1,1.1L1264.5,1199.8z M1275.8,1188.4l12.4,12.4l2.1-2.1l-12.3-12.4L1275.8,1188.4z M1288.2,1198.7l-12.4,12.4l2.1,2.1
						l12.4-12.4L1288.2,1198.7z M1278,1211.1l-12.4-12.4l-2.1,2.1l12.4,12.4L1278,1211.1z M1265.6,1200.8l12.4-12.4l-2.1-2.1
						l-12.4,12.4L1265.6,1200.8z"/>
				</g>
				<g id="Vector-38">
					<path id="path29_stroke" class="st1" d="M1051.2,1661.5v-1.5h-1.5v1.5L1051.2,1661.5z M1068.7,1661.5h1.5v-1.5h-1.5V1661.5z
						 M1068.7,1679v1.5h1.5v-1.5L1068.7,1679z M1051.2,1679h-1.5v1.5h1.5V1679z M1051.2,1663h17.5v-3h-17.5V1663z M1067.2,1661.5
						v17.5h3v-17.5L1067.2,1661.5z M1068.7,1677.5h-17.5v3h17.5V1677.5z M1052.7,1679v-17.5h-3v17.5L1052.7,1679z"/>
				</g>
				<g id="Vector-39">
					<path id="path30_stroke" class="st1" d="M1137.1,1759.5v-1.5h-1.5v1.5L1137.1,1759.5z M1149.1,1759.5h1.5v-1.5h-1.5V1759.5z
						 M1149.1,1771.5v1.5h1.5v-1.5H1149.1z M1137.1,1771.5h-1.5v1.5h1.5V1771.5z M1137.1,1761h12v-3h-12V1761z M1147.6,1759.5v12h3
						v-12H1147.6z M1149.1,1770h-12v3h12V1770z M1138.6,1771.5v-12h-3v12H1138.6z"/>
				</g>
				<g id="Vector-40">
					<path id="path31_stroke" class="st1" d="M1151.2,1385.4v-1.5h-1.5v1.5H1151.2z M1168.7,1385.4h1.5v-1.5h-1.5V1385.4z
						 M1168.7,1402.9v1.5h1.5v-1.5H1168.7z M1151.2,1402.9h-1.5v1.5h1.5V1402.9z M1151.2,1386.9h17.5v-3h-17.5V1386.9z
						 M1167.2,1385.4v17.5h3v-17.5H1167.2z M1168.7,1401.4h-17.5v3h17.5V1401.4z M1152.7,1402.9v-17.5h-3v17.5H1152.7z"/>
				</g>
				<g id="Vector-41">
					<path id="path31_stroke-2" class="st1" d="M1341.2,1445.4v-1.5h-1.5v1.5H1341.2z M1358.7,1445.4h1.5v-1.5h-1.5V1445.4z
						 M1358.7,1462.9v1.5h1.5v-1.5H1358.7z M1341.2,1462.9h-1.5v1.5h1.5V1462.9z M1341.2,1446.9h17.5v-3h-17.5V1446.9z
						 M1357.2,1445.4v17.5h3v-17.5H1357.2z M1358.7,1461.4h-17.5v3h17.5V1461.4z M1342.7,1462.9v-17.5h-3v17.5H1342.7z"/>
				</g>
				<g id="Vector-42">
					<path id="path32_fill" class="st1" d="M1180.8,1319.1c2.1-0.1,3.9-1.5,4.7-3.4c0.3-0.7,1-1.2,1.8-1.3c0.8,0,1.5,0.5,1.8,1.3
						c0.9,2.6,3.7,4,6.3,3.1c1.5-0.5,2.7-1.7,3.1-3.1c0.3-0.7,1-1.2,1.8-1.3c0.8,0,1.5,0.5,1.8,1.3c0.9,2.6,3.7,4,6.3,3.1
						c1.5-0.5,2.7-1.7,3.1-3.1c0.3-0.7,1-1.2,1.8-1.3c0.8,0,1.5,0.5,1.8,1.3c0.9,2.6,3.7,4,6.3,3.1c1.5-0.5,2.7-1.7,3.1-3.1
						c0.5-1,0.2-2.1-0.6-2.8c-0.7-0.5-1.7-0.3-2.2,0.4c-0.1,0.1-0.1,0.2-0.1,0.3c-0.3,0.7-1,1.2-1.8,1.3c-0.8,0-1.5-0.5-1.8-1.3
						c-0.9-2.6-3.7-4-6.3-3.1c-1.5,0.5-2.7,1.7-3.1,3.1c-0.3,0.7-1,1.2-1.8,1.3c-0.8,0-1.5-0.5-1.8-1.3c-0.9-2.6-3.7-4-6.3-3.1
						c-1.5,0.5-2.7,1.7-3.1,3.1c-0.3,0.7-1,1.2-1.8,1.3c-0.8,0-1.5-0.5-1.8-1.3c-0.9-2.6-3.7-4-6.3-3.1c-1.5,0.5-2.7,1.7-3.1,3.1
						c-0.3,0.7-1,1.2-1.8,1.3c-0.8,0-1.5-0.5-1.8-1.3c-0.3-0.8-1.1-1.2-1.9-0.9c-0.1,0.1-0.3,0.1-0.4,0.2c-0.8,0.7-1.1,1.8-0.6,2.8
						C1176.9,1317.7,1178.7,1319,1180.8,1319.1z"/>
				</g>
				<g id="Vector-43">
					<path id="path32_fill-2" class="st1" d="M686.6,1763.3c1.6,1.4,3.8,1.7,5.7,0.9c0.7-0.3,1.6-0.2,2.2,0.3
						c0.6,0.6,0.7,1.5,0.3,2.2c-1.2,2.4-0.3,5.4,2.2,6.7c1.4,0.7,3.1,0.7,4.5,0c0.7-0.3,1.6-0.2,2.2,0.3c0.5,0.6,0.7,1.5,0.3,2.2
						c-1.2,2.4-0.3,5.4,2.2,6.7c1.4,0.7,3.1,0.7,4.5,0c0.7-0.3,1.6-0.2,2.2,0.3c0.6,0.6,0.7,1.5,0.3,2.2c-1.2,2.4-0.3,5.4,2.2,6.7
						c1.4,0.7,3.1,0.7,4.5,0c1-0.3,1.7-1.3,1.6-2.4c-0.2-0.8-1-1.4-1.8-1.2c-0.1,0-0.2,0.1-0.3,0.1c-0.7,0.3-1.6,0.2-2.2-0.3
						c-0.5-0.6-0.7-1.5-0.3-2.2c1.2-2.4,0.3-5.4-2.2-6.7c-1.4-0.7-3.1-0.7-4.5,0c-0.7,0.3-1.6,0.2-2.2-0.3c-0.6-0.6-0.7-1.5-0.3-2.2
						c1.2-2.4,0.3-5.4-2.2-6.7c-1.4-0.7-3.1-0.7-4.5,0c-0.7,0.3-1.6,0.2-2.2-0.3c-0.6-0.6-0.7-1.5-0.3-2.2c1.2-2.4,0.3-5.4-2.2-6.7
						c-1.4-0.7-3.1-0.7-4.5,0c-0.7,0.3-1.6,0.2-2.2-0.3c-0.6-0.6-0.7-1.5-0.3-2.2c0.4-0.7,0-1.6-0.7-2c-0.1-0.1-0.3-0.1-0.4-0.1
						c-1.1-0.1-2.1,0.5-2.4,1.6C684.9,1759.5,685.3,1761.8,686.6,1763.3z"/>
				</g>
				<g id="Vector-44">
					<path id="path33_fill" class="st1" d="M867.7,1083c0.7,0.6,1.6,0.7,2.4,0.4c0.4-0.1,0.7-0.1,0.9,0.2c0.2,0.2,0.3,0.6,0.2,0.9
						c-0.5,1-0.1,2.3,0.9,2.8c0.6,0.3,1.3,0.3,1.9,0c0.4-0.1,0.7-0.1,0.9,0.2c0.2,0.2,0.3,0.6,0.2,0.9c-0.5,1-0.1,2.3,0.9,2.8
						c0.6,0.3,1.3,0.3,1.9,0c0.4-0.1,0.7-0.1,0.9,0.2c0.2,0.2,0.3,0.6,0.2,0.9c-0.5,1-0.1,2.3,0.9,2.8c0.6,0.3,1.3,0.3,1.9,0
						c0.4-0.2,0.7-0.6,0.7-1c-0.1-0.3-0.4-0.5-0.7-0.5c-0.1,0-0.1,0-0.2,0.1c-0.4,0.1-0.7,0.1-0.9-0.2c-0.2-0.2-0.3-0.6-0.2-0.9
						c0.5-1,0.1-2.3-0.9-2.8c-0.6-0.3-1.3-0.3-1.9,0c-0.4,0.1-0.7,0.1-0.9-0.2c-0.2-0.2-0.3-0.6-0.2-0.9c0.5-1,0.1-2.3-0.9-2.8
						c-0.6-0.3-1.3-0.3-1.9,0c-0.4,0.1-0.7,0.1-0.9-0.2c-0.2-0.2-0.3-0.6-0.2-0.9c0.5-1,0.1-2.3-0.9-2.8c-0.6-0.3-1.3-0.3-1.9,0
						c-0.4,0.1-0.7,0.1-0.9-0.2c-0.2-0.2-0.3-0.6-0.2-0.9c0.2-0.3,0.1-0.7-0.2-0.8c-0.1,0-0.2-0.1-0.3-0.1c-0.5-0.1-0.9,0.2-1,0.7
						C867,1081.5,867.2,1082.4,867.7,1083z"/>
				</g>
				<g id="Vector-45">
					<path id="path34_fill" class="st1" d="M1266.6,1089.4c0.9,0,1.7-0.6,2-1.4c0.2-0.3,0.5-0.6,0.8-0.6c0.4,0,0.7,0.3,0.8,0.6
						c0.4,1.1,1.6,1.7,2.7,1.3c0.6-0.2,1.1-0.7,1.3-1.3c0.2-0.3,0.5-0.6,0.8-0.6c0.4,0,0.7,0.3,0.8,0.6c0.4,1.1,1.6,1.7,2.7,1.3
						c0.6-0.2,1.1-0.7,1.3-1.3c0.2-0.3,0.5-0.6,0.8-0.6c0.4,0,0.7,0.3,0.8,0.6c0.4,1.1,1.6,1.7,2.7,1.3c0.6-0.2,1.1-0.7,1.3-1.3
						c0.2-0.4,0.1-0.9-0.3-1.2c-0.3-0.2-0.6-0.1-0.8,0.1c0,0-0.1,0.1-0.1,0.2c-0.2,0.3-0.5,0.6-0.8,0.6c-0.4,0-0.7-0.3-0.8-0.6
						c-0.4-1.1-1.6-1.7-2.7-1.3c-0.6,0.2-1.1,0.7-1.3,1.3c-0.2,0.3-0.5,0.6-0.8,0.6c-0.4,0-0.7-0.3-0.8-0.6
						c-0.4-1.1-1.6-1.7-2.7-1.3c-0.6,0.2-1.1,0.7-1.3,1.3c-0.2,0.3-0.5,0.6-0.8,0.6c-0.4,0-0.7-0.3-0.8-0.6
						c-0.4-1.1-1.6-1.7-2.7-1.3c-0.6,0.2-1.1,0.7-1.3,1.3c-0.2,0.3-0.5,0.6-0.8,0.6c-0.4,0-0.7-0.3-0.8-0.6
						c-0.2-0.4-0.6-0.6-0.9-0.3c-0.3,0.3-0.4,0.8-0.2,1.2C1265,1088.8,1265.8,1089.3,1266.6,1089.4z"/>
				</g>
				<g id="Vector-46">
					<path id="path35_fill" class="st1" d="M1310.3,1590.4c1.4-1.5,1.8-3.8,0.9-5.7c-0.4-0.7-0.2-1.6,0.4-2.2
						c0.6-0.5,1.4-0.7,2.2-0.4c1.9,0.8,4.1,0.5,5.7-0.9c1.4-1.5,1.8-3.8,0.9-5.7c-0.3-0.7-0.2-1.6,0.4-2.2c0.6-0.5,1.4-0.7,2.2-0.4
						c1.9,0.8,4.1,0.5,5.7-0.9c1.4-1.5,1.8-3.8,0.9-5.7c-0.4-0.7-0.2-1.6,0.4-2.2c0.6-0.5,1.4-0.7,2.2-0.4c1.9,0.8,4.1,0.5,5.7-0.9
						c1.4-1.5,1.8-3.8,0.9-5.7c-0.4-1-1.3-1.6-2.4-1.6c-0.8,0.2-1.4,0.9-1.2,1.8c0,0.1,0.1,0.2,0.1,0.3c0.3,0.7,0.2,1.6-0.4,2.2
						c-0.6,0.5-1.4,0.7-2.2,0.4c-1.9-0.8-4.1-0.5-5.7,0.9c-1.4,1.5-1.8,3.8-0.9,5.7c0.4,0.7,0.2,1.6-0.4,2.2
						c-0.6,0.5-1.4,0.7-2.2,0.4c-1.9-0.8-4.1-0.5-5.7,0.9c-1.4,1.5-1.8,3.8-0.9,5.7c0.4,0.7,0.2,1.6-0.4,2.2
						c-0.6,0.5-1.4,0.7-2.2,0.4c-1.9-0.8-4.1-0.5-5.7,0.9c-1.4,1.5-1.8,3.8-0.9,5.7c0.4,0.7,0.2,1.6-0.4,2.2
						c-0.6,0.5-1.4,0.7-2.2,0.4c-0.7-0.4-1.6-0.1-1.9,0.6c-0.1,0.2-0.1,0.3-0.2,0.5c-0.1,1.1,0.5,2.1,1.6,2.4
						C1306.5,1592.1,1308.7,1591.8,1310.3,1590.4z"/>
				</g>
				<g id="Vector-47">
					<path id="path36_fill" class="st1" d="M985.9,1386.9c1.4-1.5,1.8-3.8,0.9-5.7c-0.4-0.7-0.2-1.6,0.4-2.2
						c0.6-0.5,1.4-0.7,2.2-0.4c1.9,0.8,4.1,0.5,5.7-0.9c1.4-1.5,1.8-3.8,0.9-5.7c-0.3-0.7-0.2-1.6,0.4-2.2c0.6-0.5,1.4-0.7,2.2-0.4
						c1.9,0.8,4.1,0.5,5.7-0.9c1.4-1.5,1.8-3.8,0.9-5.7c-0.4-0.7-0.2-1.6,0.4-2.2c0.6-0.5,1.4-0.7,2.2-0.4c1.9,0.8,4.1,0.5,5.7-0.9
						c1.4-1.5,1.8-3.8,0.9-5.7c-0.4-1-1.3-1.6-2.4-1.6c-0.8,0.2-1.4,0.9-1.2,1.8c0,0.1,0.1,0.2,0.1,0.3c0.3,0.7,0.2,1.6-0.4,2.2
						c-0.6,0.5-1.4,0.7-2.2,0.4c-1.9-0.8-4.1-0.5-5.7,0.9c-1.4,1.5-1.8,3.8-0.9,5.7c0.4,0.7,0.2,1.6-0.4,2.2
						c-0.6,0.5-1.4,0.7-2.2,0.4c-1.9-0.8-4.1-0.5-5.7,0.9c-1.4,1.5-1.8,3.8-0.9,5.7c0.4,0.7,0.2,1.6-0.4,2.2
						c-0.6,0.5-1.4,0.7-2.2,0.4c-1.9-0.8-4.1-0.5-5.7,0.9c-1.4,1.5-1.8,3.8-0.9,5.7c0.4,0.7,0.2,1.6-0.4,2.2
						c-0.6,0.5-1.4,0.7-2.2,0.4c-0.7-0.4-1.6-0.1-1.9,0.6c-0.1,0.2-0.1,0.3-0.2,0.5c-0.1,1.1,0.5,2.1,1.6,2.4
						C982.1,1388.6,984.3,1388.3,985.9,1386.9z"/>
				</g>
				<g id="Vector-48">
					<path id="path36_fill-2" class="st1" d="M31.7,1362.9c2.1-0.1,3.9-1.4,4.7-3.4c0.3-0.8,1-1.3,1.8-1.3c0.8,0,1.5,0.5,1.8,1.3
						c0.8,1.9,2.6,3.2,4.7,3.4c2.1-0.1,3.9-1.4,4.7-3.4c0.3-0.8,1-1.3,1.8-1.3c0.8,0,1.5,0.5,1.8,1.3c0.8,1.9,2.6,3.2,4.7,3.4
						c2.1-0.1,3.9-1.4,4.7-3.4c0.3-0.8,1-1.3,1.8-1.3c0.8,0,1.5,0.5,1.8,1.3c0.8,1.9,2.6,3.2,4.7,3.4c2.1-0.1,3.9-1.4,4.7-3.4
						c0.4-1,0.2-2.1-0.6-2.8c-0.7-0.5-1.6-0.3-2.1,0.4c-0.1,0.1-0.1,0.2-0.2,0.3c-0.3,0.8-1,1.3-1.8,1.3c-0.8,0-1.5-0.5-1.8-1.3
						c-0.8-1.9-2.6-3.2-4.7-3.4c-2.1,0.1-3.9,1.4-4.7,3.4c-0.3,0.8-1,1.3-1.8,1.3c-0.8,0-1.5-0.5-1.8-1.3c-0.8-1.9-2.6-3.2-4.7-3.4
						c-2.1,0.1-3.9,1.4-4.7,3.4c-0.3,0.8-1,1.3-1.8,1.3c-0.8,0-1.5-0.5-1.8-1.3c-0.8-1.9-2.6-3.2-4.7-3.4c-2.1,0.1-3.9,1.4-4.7,3.4
						c-0.3,0.8-1,1.3-1.8,1.3c-0.8,0-1.5-0.5-1.8-1.3c-0.2-0.8-1-1.2-1.8-0.9c-0.2,0.1-0.3,0.1-0.5,0.2c-0.9,0.7-1.1,1.9-0.6,2.8
						C27.8,1361.4,29.7,1362.7,31.7,1362.9z"/>
				</g>
				<g id="Vector-49">
					<path id="path37_fill" class="st1" d="M838.3,1430.9c0.7,0.6,1.7,0.8,2.5,0.4c0.4-0.1,0.8-0.1,1,0.2c0.2,0.3,0.3,0.7,0.2,1
						c-0.4,0.8-0.2,1.8,0.4,2.5c0.7,0.6,1.7,0.8,2.5,0.4c0.4-0.1,0.8-0.1,1,0.2c0.2,0.3,0.3,0.7,0.2,1c-0.4,0.8-0.2,1.8,0.4,2.5
						c0.7,0.6,1.7,0.8,2.5,0.4c0.4-0.1,0.8-0.1,1,0.2c0.2,0.3,0.3,0.7,0.2,1c-0.4,0.8-0.2,1.8,0.4,2.5c0.7,0.6,1.7,0.8,2.5,0.4
						c0.5-0.1,0.8-0.6,0.7-1.1c-0.1-0.4-0.5-0.6-0.9-0.5c0,0,0,0,0,0c-0.4,0.1-0.8,0.1-1-0.2c-0.2-0.3-0.3-0.7-0.2-1
						c0.4-0.8,0.2-1.8-0.4-2.5c-0.7-0.6-1.7-0.8-2.5-0.4c-0.4,0.1-0.8,0.1-1-0.2c-0.2-0.3-0.3-0.7-0.2-1c0.4-0.8,0.2-1.8-0.4-2.5
						c-0.7-0.6-1.7-0.8-2.5-0.4c-0.4,0.1-0.8,0.1-1-0.2c-0.2-0.3-0.3-0.7-0.2-1c0.4-0.8,0.2-1.8-0.4-2.5c-0.7-0.6-1.7-0.8-2.5-0.4
						c-0.4,0.1-0.8,0.1-1-0.2c-0.2-0.3-0.3-0.7-0.2-1c0.2-0.5,0-0.9-0.5-0.9c-0.5-0.1-1,0.2-1.1,0.7
						C837.5,1429.2,837.7,1430.2,838.3,1430.9z"/>
				</g>
				<g id="Vector-50">
					<path id="path38_fill" class="st1" d="M1108.4,1134.2c1.4-1.5,1.8-3.8,0.9-5.7c-0.4-0.7-0.2-1.6,0.4-2.2
						c0.6-0.5,1.4-0.7,2.2-0.4c1.9,0.8,4.1,0.5,5.7-0.9c1.4-1.5,1.8-3.8,0.9-5.7c-0.3-0.7-0.2-1.6,0.4-2.2c0.6-0.5,1.4-0.7,2.2-0.4
						c1.9,0.8,4.1,0.5,5.7-0.9c1.4-1.5,1.8-3.8,0.9-5.7c-0.4-0.7-0.2-1.6,0.4-2.2c0.6-0.5,1.4-0.7,2.2-0.4c1.9,0.8,4.1,0.5,5.7-0.9
						c1.4-1.5,1.8-3.8,0.9-5.7c-0.4-1-1.3-1.6-2.4-1.6c-0.8,0.2-1.4,0.9-1.2,1.8c0,0.1,0.1,0.2,0.1,0.3c0.3,0.7,0.2,1.6-0.4,2.2
						c-0.6,0.5-1.4,0.7-2.2,0.4c-1.9-0.8-4.1-0.5-5.7,0.9c-1.4,1.5-1.8,3.8-0.9,5.7c0.4,0.7,0.2,1.6-0.4,2.2
						c-0.6,0.5-1.4,0.7-2.2,0.4c-1.9-0.8-4.1-0.5-5.7,0.9c-1.4,1.5-1.8,3.8-0.9,5.7c0.4,0.7,0.2,1.6-0.4,2.2
						c-0.6,0.5-1.4,0.7-2.2,0.4c-1.9-0.8-4.1-0.5-5.7,0.9c-1.4,1.5-1.8,3.8-0.9,5.7c0.4,0.7,0.2,1.6-0.4,2.2
						c-0.6,0.5-1.4,0.7-2.2,0.4c-0.7-0.4-1.6-0.1-1.9,0.6c-0.1,0.2-0.1,0.3-0.2,0.5c-0.1,1.1,0.5,2.1,1.6,2.4
						C1104.6,1135.9,1106.8,1135.6,1108.4,1134.2z"/>
				</g>
				<g id="Vector-51">
					<path id="path39_fill" class="st1" d="M603.9,1154c2.1-0.1,3.9-1.5,4.7-3.4c0.3-0.7,1-1.2,1.8-1.3c0.8,0,1.5,0.5,1.8,1.3
						c0.9,2.6,3.7,4,6.3,3.1c1.5-0.5,2.7-1.7,3.1-3.1c0.3-0.7,1-1.2,1.8-1.3c0.8,0,1.5,0.5,1.8,1.3c0.9,2.6,3.7,4,6.3,3.1
						c1.5-0.5,2.7-1.7,3.1-3.1c0.3-0.7,1-1.2,1.8-1.3c0.8,0,1.5,0.5,1.8,1.3c0.9,2.6,3.7,4,6.3,3.1c1.5-0.5,2.7-1.7,3.1-3.1
						c0.5-1,0.2-2.1-0.6-2.8c-0.7-0.5-1.7-0.3-2.2,0.4c-0.1,0.1-0.1,0.2-0.1,0.3c-0.3,0.7-1,1.2-1.8,1.3c-0.8,0-1.5-0.5-1.8-1.3
						c-0.9-2.6-3.7-4-6.3-3.1c-1.5,0.5-2.7,1.7-3.1,3.1c-0.3,0.7-1,1.2-1.8,1.3c-0.8,0-1.5-0.5-1.8-1.3c-0.9-2.6-3.7-4-6.3-3.1
						c-1.5,0.5-2.7,1.7-3.1,3.1c-0.3,0.7-1,1.2-1.8,1.3c-0.8,0-1.5-0.5-1.8-1.3c-0.9-2.6-3.7-4-6.3-3.1c-1.5,0.5-2.7,1.7-3.1,3.1
						c-0.3,0.7-1,1.2-1.8,1.3c-0.8,0-1.5-0.5-1.8-1.3c-0.3-0.8-1.1-1.2-1.9-0.9c-0.1,0.1-0.3,0.1-0.4,0.2c-0.8,0.7-1.1,1.8-0.6,2.8
						C600,1152.5,601.8,1153.9,603.9,1154z"/>
				</g>
				<g id="Vector-52">
					<path id="path39_fill-2" class="st1" d="M418.9,1200.9c1.4-1.6,1.7-3.8,0.9-5.7c-0.3-0.7-0.2-1.6,0.4-2.2
						c0.6-0.6,1.5-0.7,2.2-0.3c2.4,1.2,5.4,0.2,6.6-2.2c0.7-1.4,0.7-3,0-4.4c-0.3-0.7-0.2-1.6,0.4-2.2c0.6-0.5,1.5-0.7,2.2-0.3
						c2.4,1.2,5.4,0.3,6.6-2.2c0.7-1.4,0.7-3.1,0-4.5c-0.3-0.7-0.2-1.6,0.4-2.2c0.6-0.6,1.5-0.7,2.2-0.3c2.4,1.2,5.4,0.3,6.6-2.2
						c0.7-1.4,0.7-3.1,0-4.5c-0.3-1-1.3-1.7-2.4-1.6c-0.8,0.2-1.4,1-1.2,1.8c0,0.1,0.1,0.2,0.1,0.3c0.3,0.7,0.2,1.6-0.4,2.2
						c-0.6,0.5-1.5,0.7-2.2,0.3c-2.4-1.2-5.4-0.3-6.6,2.2c-0.7,1.4-0.7,3.1,0,4.5c0.3,0.7,0.2,1.6-0.4,2.2c-0.6,0.6-1.5,0.7-2.2,0.3
						c-2.4-1.2-5.4-0.3-6.6,2.2c-0.7,1.4-0.7,3.1,0,4.5c0.3,0.7,0.2,1.6-0.4,2.2c-0.6,0.6-1.5,0.7-2.2,0.3c-2.4-1.2-5.4-0.3-6.6,2.2
						c-0.7,1.4-0.7,3.1,0,4.5c0.3,0.7,0.2,1.6-0.4,2.2c-0.6,0.6-1.5,0.7-2.2,0.3c-0.7-0.4-1.6,0-2,0.7c-0.1,0.1-0.1,0.3-0.1,0.4
						c-0.1,1.1,0.5,2.1,1.6,2.4C415.1,1202.6,417.3,1202.3,418.9,1200.9z"/>
				</g>
				<g id="Vector-53">
					<path id="path40_fill" class="st1" d="M14.1,1698c2.1-0.1,3.9-1.5,4.7-3.4c0.3-0.7,1-1.2,1.8-1.3c0.8,0,1.5,0.5,1.8,1.3
						c0.8,1.9,2.6,3.3,4.7,3.4c2.1-0.1,3.9-1.5,4.7-3.4c0.3-0.7,1-1.2,1.8-1.3c0.8,0,1.5,0.5,1.8,1.3c0.8,1.9,2.6,3.3,4.7,3.4
						c2.1-0.1,3.9-1.5,4.7-3.4c0.3-0.7,1-1.2,1.8-1.3c0.8,0,1.5,0.5,1.8,1.3c0.8,1.9,2.6,3.3,4.7,3.4c2.1-0.1,3.9-1.5,4.7-3.4
						c0.5-1,0.2-2.1-0.6-2.8c-0.7-0.5-1.7-0.3-2.2,0.4c-0.1,0.1-0.1,0.2-0.1,0.3c-0.3,0.7-1,1.2-1.8,1.3c-0.8,0-1.5-0.5-1.8-1.3
						c-0.8-1.9-2.6-3.3-4.7-3.4c-2.1,0.1-3.9,1.5-4.7,3.4c-0.3,0.7-1,1.2-1.8,1.3c-0.8,0-1.5-0.5-1.8-1.3c-0.8-1.9-2.6-3.3-4.7-3.4
						c-2.1,0.1-3.9,1.5-4.7,3.4c-0.3,0.7-1,1.2-1.8,1.3c-0.8,0-1.5-0.5-1.8-1.3c-0.8-1.9-2.6-3.3-4.7-3.4c-2.1,0.1-3.9,1.5-4.7,3.4
						c-0.3,0.7-1,1.2-1.8,1.3c-0.8,0-1.5-0.5-1.8-1.3c-0.3-0.8-1.1-1.2-1.9-0.9c-0.1,0.1-0.3,0.1-0.4,0.2c-0.8,0.7-1.1,1.8-0.6,2.8
						C10.2,1696.5,12,1697.9,14.1,1698z"/>
				</g>
			</g>
			<g id="Pattern-2">
				<g id="Vector-54">
					<path id="path0_stroke-2" class="st1" d="M729.6,653.5c0,4.1-3.4,7.5-7.5,7.5v3c5.8,0,10.5-4.7,10.5-10.5H729.6z M722.1,661
						c-4.1,0-7.5-3.4-7.5-7.5h-3c0,5.8,4.7,10.5,10.5,10.5V661z M714.6,653.5c0-4.1,3.4-7.5,7.5-7.5v-3c-5.8,0-10.5,4.7-10.5,10.5
						H714.6z M722.1,646c4.1,0,7.5,3.4,7.5,7.5h3c0-5.8-4.7-10.5-10.5-10.5V646z"/>
				</g>
				<g id="Vector-55">
					<path id="path1_stroke-2" class="st1" d="M480.3,824.9c0,2.8-2.3,5.1-5.1,5.1l0,0v2c3.9,0,7.1-3.2,7.1-7.1L480.3,824.9z
						 M475.2,830c-2.8,0-5.1-2.3-5.1-5.1l0,0h-2c0,3.9,3.2,7.1,7.1,7.1L475.2,830z M470.1,824.9c0-2.8,2.3-5.1,5.1-5.1l0,0v-2
						c-3.9,0-7.1,3.2-7.1,7.1L470.1,824.9z M475.2,819.8c2.8,0,5.1,2.3,5.1,5.1l0,0h2c0-3.9-3.2-7.1-7.1-7.1L475.2,819.8z"/>
				</g>
				<g id="Vector-56">
					<path id="path2_stroke-2" class="st1" d="M1124.6,602.2c0,1.7-1.3,3-3,3v3c3.3,0,6-2.7,6-6H1124.6z M1121.6,605.2
						c-1.7,0-3-1.3-3-3h-3c0,3.3,2.7,6,6,6V605.2z M1118.6,602.2c0-1.7,1.3-3,3-3v-3c-3.3,0-6,2.7-6,6H1118.6z M1121.6,599.2
						c1.7,0,3,1.3,3,3h3c0-3.3-2.7-6-6-6V599.2z"/>
				</g>
				<g id="Vector-57">
					<path id="path3_stroke-2" class="st1" d="M795.8,429.4c0,4.1-3.4,7.5-7.5,7.5l0,0v3c5.8,0,10.5-4.7,10.5-10.5l0,0H795.8z
						 M788.3,436.9c-4.1,0-7.5-3.4-7.5-7.5l0,0h-3c0,5.8,4.7,10.5,10.5,10.5l0,0V436.9z M780.8,429.4c0-4.1,3.4-7.5,7.5-7.5l0,0v-3
						c-5.8,0-10.5,4.7-10.5,10.5l0,0H780.8z M788.3,421.9c4.1,0,7.5,3.4,7.5,7.5l0,0h3c0-5.8-4.7-10.5-10.5-10.5l0,0V421.9z"/>
				</g>
				<g id="Vector-58">
					<path id="path3_stroke-3" class="st1" d="M592.5,421c0,4.1-3.4,7.5-7.5,7.5l0,0v3c5.8,0,10.5-4.7,10.5-10.5H592.5z M585,428.5
						c-4.1,0-7.5-3.4-7.5-7.5l0,0h-3c0,5.8,4.7,10.5,10.5,10.5V428.5z M577.5,421c0-4.1,3.4-7.5,7.5-7.5l0,0v-3
						c-5.8,0-10.5,4.7-10.5,10.5l0,0H577.5z M585,413.5c4.1,0,7.5,3.4,7.5,7.5l0,0h3c0-5.8-4.7-10.5-10.5-10.5l0,0V413.5z"/>
				</g>
				<g id="Vector-59">
					<path id="path4_stroke-4" class="st1" d="M922.9,821.8c0,4.1-3.4,7.5-7.5,7.5l0,0v3c5.8,0,10.5-4.7,10.5-10.5l0,0H922.9z
						 M915.4,829.3c-4.1,0-7.5-3.4-7.5-7.5l0,0h-3c0,5.8,4.7,10.5,10.5,10.5l0,0V829.3z M907.9,821.8c0-4.1,3.4-7.5,7.5-7.5l0,0v-3
						c-5.8,0-10.5,4.7-10.5,10.5H907.9z M915.4,814.3c4.1,0,7.5,3.4,7.5,7.5l0,0h3c0-5.8-4.7-10.5-10.5-10.5V814.3z"/>
				</g>
				<g id="Vector-60">
					<path id="path4_stroke-5" class="st1" d="M601.6,593.5c0,4.1-3.4,7.5-7.5,7.5l0,0v3c5.8,0,10.5-4.7,10.5-10.5l0,0H601.6z
						 M594.1,601c-4.1,0-7.5-3.4-7.5-7.5l0,0h-3c0,5.8,4.7,10.5,10.5,10.5l0,0V601z M586.6,593.5c0-4.1,3.4-7.5,7.5-7.5v-3
						c-5.8,0-10.5,4.7-10.5,10.5H586.6z M594.1,586c4.1,0,7.5,3.4,7.5,7.5h3c0-5.8-4.7-10.5-10.5-10.5V586z"/>
				</g>
				<g id="Vector-61">
					<path id="path4_stroke-6" class="st1" d="M284.5,476c0,4.1-3.4,7.5-7.5,7.5l0,0v3c5.8,0,10.5-4.7,10.5-10.5l0,0H284.5z
						 M277,483.5c-4.1,0-7.5-3.4-7.5-7.5l0,0h-3c0,5.8,4.7,10.5,10.5,10.5l0,0V483.5z M269.5,476c0-4.1,3.4-7.5,7.5-7.5l0,0v-3
						c-5.8,0-10.5,4.7-10.5,10.5l0,0H269.5z M277,468.5c4.1,0,7.5,3.4,7.5,7.5l0,0h3c0-5.8-4.7-10.5-10.5-10.5l0,0V468.5z"/>
				</g>
				<g id="Vector-62">
					<path id="path4_stroke-7" class="st1" d="M224.5,345c0,4.1-3.4,7.5-7.5,7.5l0,0v3c5.8,0,10.5-4.7,10.5-10.5l0,0H224.5z
						 M217,352.5c-4.1,0-7.5-3.4-7.5-7.5l0,0h-3c0,5.8,4.7,10.5,10.5,10.5l0,0V352.5z M209.5,345c0-4.1,3.4-7.5,7.5-7.5l0,0v-3
						c-5.8,0-10.5,4.7-10.5,10.5l0,0H209.5z M217,337.5c4.1,0,7.5,3.4,7.5,7.5l0,0h3c0-5.8-4.7-10.5-10.5-10.5l0,0V337.5z"/>
				</g>
				<g id="Vector-63">
					<path id="path4_stroke-8" class="st1" d="M482.6,906.5c0,4.1-3.4,7.5-7.5,7.5v3c5.8,0,10.5-4.7,10.5-10.5l0,0H482.6z
						 M475.1,914c-4.1,0-7.5-3.4-7.5-7.5h-3c0,5.8,4.7,10.5,10.5,10.5l0,0V914z M467.6,906.5c0-4.1,3.4-7.5,7.5-7.5l0,0v-3
						c-5.8,0-10.5,4.7-10.5,10.5H467.6z M475.1,899c4.1,0,7.5,3.4,7.5,7.5l0,0h3c0-5.8-4.7-10.5-10.5-10.5V899z"/>
				</g>
				<g id="Vector-64">
					<path id="path5_stroke-3" class="st1" d="M1093.8,392.3c0,4.1-3.4,7.5-7.5,7.5v3c5.8,0,10.5-4.7,10.5-10.5H1093.8z
						 M1086.3,399.8c-4.1,0-7.5-3.4-7.5-7.5h-3c0,5.8,4.7,10.5,10.5,10.5V399.8z M1078.8,392.3c0-4.1,3.4-7.5,7.5-7.5v-3
						c-5.8,0-10.5,4.7-10.5,10.5l0,0H1078.8z M1086.3,384.8c4.1,0,7.5,3.4,7.5,7.5h3c0-5.8-4.7-10.5-10.5-10.5l0,0V384.8z"/>
				</g>
				<g id="Vector-65">
					<path id="path5_stroke-4" class="st1" d="M1381.8,411.8c0,4.1-3.4,7.5-7.5,7.5v3c5.8,0,10.5-4.7,10.5-10.5H1381.8z
						 M1374.3,419.3c-4.1,0-7.5-3.4-7.5-7.5h-3c0,5.8,4.7,10.5,10.5,10.5V419.3z M1366.8,411.8c0-4.1,3.4-7.5,7.5-7.5v-3
						c-5.8,0-10.5,4.7-10.5,10.5H1366.8z M1374.3,404.3c4.1,0,7.5,3.4,7.5,7.5h3c0-5.8-4.7-10.5-10.5-10.5V404.3z"/>
				</g>
				<g id="Vector-66">
					<path id="path6_stroke-2" class="st1" d="M853.2,750.2c0,6.3-5.1,11.4-11.4,11.4v4.5c8.8,0,16-7.2,16-16L853.2,750.2z
						 M841.8,761.7c-6.3,0-11.4-5.1-11.4-11.4h-4.5c0,8.8,7.2,16,16,16L841.8,761.7z M830.4,750.2c0-6.3,5.1-11.4,11.4-11.4v-4.5
						c-8.8,0-16,7.2-16,16L830.4,750.2z M841.8,738.8c6.3,0,11.4,5.1,11.4,11.4h4.5c0-8.8-7.2-16-16-16L841.8,738.8z"/>
				</g>
				<g id="Vector-67">
					<path id="path6_stroke-3" class="st1" d="M219.1,588.7c0,6.3-5.1,11.4-11.4,11.4v4.5c8.8,0,16-7.2,16-16L219.1,588.7z
						 M207.7,600.1c-6.3,0-11.4-5.1-11.4-11.4h-4.6c0,8.8,7.2,16,16,16L207.7,600.1z M196.3,588.7c0-6.3,5.1-11.4,11.4-11.4v-4.5
						c-8.8,0-16,7.2-16,16L196.3,588.7z M207.7,577.3c6.3,0,11.4,5.1,11.4,11.4h4.6c0-8.8-7.2-16-16-16L207.7,577.3z"/>
				</g>
				<g id="Vector-68">
					<path id="path7_stroke-2" class="st1" d="M975.9,306c0,6.3-5.1,11.4-11.4,11.4v4.6c8.8,0,16-7.2,16-16H975.9z M964.5,317.4
						c-6.3,0-11.4-5.1-11.4-11.4h-4.5c0,8.8,7.2,16,16,16L964.5,317.4z M953.1,306c0-6.3,5.1-11.4,11.4-11.4V290
						c-8.8,0-16,7.2-16,16H953.1z M964.5,294.6c6.3,0,11.4,5.1,11.4,11.4h4.5c0-8.8-7.2-16-16-16L964.5,294.6z"/>
				</g>
				<g id="Vector-69">
					<path id="path8_stroke-2" class="st1" d="M266.6,176.5c0,4.1-3.4,7.5-7.5,7.5v3c5.8,0,10.5-4.7,10.5-10.5l0,0H266.6z
						 M259.1,184c-4.1,0-7.5-3.4-7.5-7.5h-3c0,5.8,4.7,10.5,10.5,10.5l0,0V184z M251.6,176.5c0-4.1,3.4-7.5,7.5-7.5l0,0v-3
						c-5.8,0-10.5,4.7-10.5,10.5H251.6z M259.1,169c4.1,0,7.5,3.4,7.5,7.5l0,0h3c0-5.8-4.7-10.5-10.5-10.5V169z"/>
				</g>
				<g id="Vector-70">
					<path id="path9_stroke-2" class="st1" d="M116.6,296.5c0,2.5-2,4.5-4.5,4.5v3c4.1,0,7.5-3.4,7.5-7.5H116.6z M112.1,301
						c-2.5,0-4.5-2-4.5-4.5h-3c0,4.1,3.4,7.5,7.5,7.5V301z M107.6,296.5c0-2.5,2-4.5,4.5-4.5v-3c-4.1,0-7.5,3.4-7.5,7.5H107.6z
						 M112.1,292c2.5,0,4.5,2,4.5,4.5h3c0-4.1-3.4-7.5-7.5-7.5V292z"/>
				</g>
				<g id="Vector-71">
					<path id="path10_stroke-2" class="st1" d="M1196.1,696.3c0,4.1-3.4,7.5-7.5,7.5v3c5.8,0,10.5-4.7,10.5-10.5l0,0H1196.1z
						 M1188.6,703.8c-4.1,0-7.5-3.4-7.5-7.5h-3c0,5.8,4.7,10.5,10.5,10.5l0,0V703.8z M1181.1,696.3c0-4.1,3.4-7.5,7.5-7.5v-3
						c-5.8,0-10.5,4.7-10.5,10.5H1181.1z M1188.6,688.8c4.1,0,7.5,3.4,7.5,7.5h3c0-5.8-4.7-10.5-10.5-10.5V688.8z"/>
				</g>
				<g id="Vector-72">
					<path id="path11_stroke-2" class="st1" d="M718.8,113.5c0,4.1-3.4,7.5-7.5,7.5l0,0v3c5.8,0,10.5-4.7,10.5-10.5H718.8z
						 M711.3,121c-4.1,0-7.5-3.4-7.5-7.5l0,0h-3c0,5.8,4.7,10.5,10.5,10.5V121z M703.8,113.5c0-4.1,3.4-7.5,7.5-7.5l0,0v-3
						c-5.8,0-10.5,4.7-10.5,10.5H703.8z M711.3,106c4.1,0,7.5,3.4,7.5,7.5l0,0h3c0-5.8-4.7-10.5-10.5-10.5V106z"/>
				</g>
				<g id="Vector-73">
					<path id="path12_stroke-3" class="st1" d="M956.9,388.6c0,2.2-1.8,3.9-3.9,3.9v1.6c3,0,5.5-2.5,5.5-5.5L956.9,388.6z
						 M953,392.5c-2.2,0-3.9-1.8-3.9-3.9h-1.6c0,3,2.5,5.5,5.5,5.5c0,0,0,0,0,0V392.5z M949.1,388.6c0-2.2,1.8-3.9,3.9-3.9v-1.6
						c-3,0-5.5,2.5-5.5,5.5L949.1,388.6z M953,384.7c2.2,0,3.9,1.8,3.9,3.9h1.6c0-3-2.5-5.5-5.5-5.5L953,384.7z"/>
				</g>
				<g id="Vector-74">
					<path id="path12_stroke-4" class="st1" d="M660.7,337.2c0,2.2-1.8,3.9-3.9,3.9v1.6c3,0,5.5-2.5,5.5-5.5L660.7,337.2z
						 M656.8,341.2c-2.2,0-3.9-1.8-3.9-3.9h-1.6c0,3,2.5,5.5,5.5,5.5L656.8,341.2z M652.9,337.2c0-2.2,1.8-3.9,3.9-3.9v-1.6
						c-3,0-5.5,2.5-5.5,5.5L652.9,337.2z M656.8,333.3c2.2,0,3.9,1.8,3.9,3.9h1.6c0-3-2.5-5.5-5.5-5.5L656.8,333.3z"/>
				</g>
				<g id="Vector-75">
					<path id="path13_stroke-2" class="st1" d="M168.6,816.1c0,4.1-3.4,7.5-7.5,7.5v3c5.8,0,10.5-4.7,10.5-10.5H168.6z M161.1,823.6
						c-4.1,0-7.5-3.4-7.5-7.5h-3c0,5.8,4.7,10.5,10.5,10.5V823.6z M153.6,816.1c0-4.1,3.4-7.5,7.5-7.5v-3c-5.8,0-10.5,4.7-10.5,10.5
						H153.6z M161.1,808.6c4.1,0,7.5,3.4,7.5,7.5h3c0-5.8-4.7-10.5-10.5-10.5V808.6z"/>
				</g>
				<g id="Vector-76">
					<path id="path14_stroke-2" class="st1" d="M1280.5,500.2c0,4.1-3.4,7.5-7.5,7.5l0,0v3c5.8,0,10.5-4.7,10.5-10.5l0,0H1280.5z
						 M1273,507.7c-4.1,0-7.5-3.4-7.5-7.5l0,0h-3c0,5.8,4.7,10.5,10.5,10.5l0,0V507.7z M1265.5,500.2c0-4.1,3.4-7.5,7.5-7.5l0,0v-3
						c-5.8,0-10.5,4.7-10.5,10.5l0,0H1265.5z M1273,492.7c4.1,0,7.5,3.4,7.5,7.5l0,0h3c0-5.8-4.7-10.5-10.5-10.5l0,0V492.7z"/>
				</g>
				<g id="Vector-77">
					<path id="path15_stroke-2" class="st1" d="M323.5,858.5l0.5,0.8l0.8-0.5l-0.5-0.8L323.5,858.5z M314.1,865l-0.8,0.5l0.5,0.8
						l0.8-0.5L314.1,865z M307.8,855.6l-0.5-0.8l-0.8,0.5l0.5,0.8L307.8,855.6z M317.1,849.2l0.8-0.5l-0.5-0.8l-0.8,0.5L317.1,849.2
						z M322.9,857.8l-9.3,6.4l1.1,1.6l9.3-6.4L322.9,857.8z M314.9,864.4l-6.4-9.3l-1.5,1.1l6.4,9.3L314.9,864.4z M308.3,856.4
						l9.3-6.4l-1.1-1.6l-9.3,6.4L308.3,856.4z M316.3,849.8l6.4,9.3l1.6-1.1l-6.4-9.3L316.3,849.8z"/>
				</g>
				<g id="Vector-78">
					<path id="path15_stroke-3" class="st1" d="M429.7,539.3l0.5,0.8l0.8-0.5l-0.5-0.8L429.7,539.3z M420.4,545.7l-0.8,0.5l0.5,0.8
						l0.8-0.5L420.4,545.7z M414,536.4l-0.5-0.8l-0.8,0.5l0.5,0.8L414,536.4z M423.3,530l0.8-0.5l-0.5-0.8l-0.8,0.5L423.3,530z
						 M429.2,538.5l-9.3,6.4l1.1,1.6l9.3-6.4L429.2,538.5z M421.2,545.2l-6.4-9.3l-1.6,1.1l6.4,9.3L421.2,545.2z M414.5,537.2
						l9.3-6.4l-1.1-1.6l-9.3,6.4L414.5,537.2z M422.5,530.5l6.4,9.3l1.6-1.1l-6.4-9.3L422.5,530.5z"/>
				</g>
				<g id="Vector-79">
					<path id="path16_stroke-2" class="st1" d="M827.6,285.1h1.5v-1.5h-1.5V285.1z M827.6,302.6v1.5h1.5v-1.5H827.6z M810.1,302.6
						h-1.5v1.5h1.5V302.6z M810.1,285.1v-1.5h-1.5v1.5H810.1z M826.1,285.1v17.5h3v-17.5H826.1z M827.6,301.1h-17.5v3h17.5V301.1z
						 M811.6,302.6v-17.5h-3v17.5H811.6z M810.1,286.6h17.5v-3h-17.5V286.6z"/>
				</g>
				<g id="Vector-80">
					<path id="path16_stroke-3" class="st1" d="M376.5,467h1.5v-1.5h-1.5V467z M376.5,484.5v1.5h1.5v-1.5H376.5z M359,484.5h-1.5
						v1.5h1.5V484.5z M359,467v-1.5h-1.5v1.5H359z M375,467v17.5h3V467H375z M376.5,483H359v3h17.5V483z M360.5,484.5V467h-3v17.5
						H360.5z M359,468.5h17.5v-3H359V468.5z"/>
				</g>
				<g id="Vector-81">
					<path id="path17_stroke-2" class="st1" d="M533.7,221.6h1.5v-1.5h-1.5V221.6z M533.7,239.1v1.5h1.5v-1.5H533.7z M516.2,239.1
						h-1.5v1.5h1.5V239.1z M516.2,221.6v-1.5h-1.5v1.5H516.2z M532.2,221.6v17.5h3v-17.5H532.2z M533.7,237.6h-17.5v3h17.5V237.6z
						 M517.7,239.1v-17.5h-3v17.5H517.7z M516.2,223.1h17.5v-3h-17.5V223.1z"/>
				</g>
				<g id="Vector-82">
					<path id="path18_stroke-2" class="st1" d="M1113.4,95l0.7-0.7l-0.7-0.7l-0.7,0.7L1113.4,95z M1121.1,102.7l0.7,0.7l0.7-0.7
						l-0.7-0.7L1121.1,102.7z M1113.4,110.4l-0.7,0.7l0.7,0.7l0.7-0.7L1113.4,110.4z M1105.7,102.7l-0.7-0.7l-0.7,0.7l0.7,0.7
						L1105.7,102.7z M1112.7,95.7l7.7,7.7l1.3-1.3l-7.7-7.7L1112.7,95.7z M1120.4,102.1l-7.7,7.7l1.3,1.3l7.7-7.7L1120.4,102.1z
						 M1114,109.8l-7.7-7.7l-1.3,1.3l7.7,7.7L1114,109.8z M1106.3,103.4l7.7-7.7l-1.3-1.3l-7.7,7.7L1106.3,103.4z"/>
				</g>
				<g id="Vector-83">
					<path id="path19_stroke-2" class="st1" d="M1010.3,198.5l1.1-1.1l-1.1-1.1l-1.1,1.1L1010.3,198.5z M1022.7,210.8l1.1,1.1
						l1.1-1.1l-1.1-1.1L1022.7,210.8z M1010.3,223.2l-1.1,1.1l1.1,1.1l1.1-1.1L1010.3,223.2z M997.9,210.8l-1.1-1.1l-1.1,1.1
						l1.1,1.1L997.9,210.8z M1009.2,199.5l12.4,12.4l2.1-2.1l-12.4-12.4L1009.2,199.5z M1021.6,209.8l-12.4,12.4l2.1,2.1l12.4-12.4
						L1021.6,209.8z M1011.4,222.1L999,209.8l-2.1,2.1l12.4,12.4L1011.4,222.1z M999,211.9l12.4-12.4l-2.1-2.1l-12.4,12.4L999,211.9
						z"/>
				</g>
				<g id="Vector-84">
					<path id="path19_stroke-3" class="st1" d="M1321.4,83l1.1-1.1l-1.1-1.1l-1.1,1.1L1321.4,83z M1333.7,95.4l1.1,1.1l1.1-1.1
						l-1.1-1.1L1333.7,95.4z M1321.4,107.7l-1.1,1.1l1.1,1.1l1.1-1.1L1321.4,107.7z M1309,95.4l-1.1-1.1l-1.1,1.1l1.1,1.1L1309,95.4
						z M1320.3,84.1l12.4,12.4l2.1-2.1l-12.4-12.4L1320.3,84.1z M1332.7,94.3l-12.4,12.4l2.1,2.1l12.4-12.4L1332.7,94.3z
						 M1322.4,106.7l-12.4-12.4l-2.1,2.1l12.4,12.4L1322.4,106.7z M1310.1,96.4l12.4-12.4l-2.1-2.1l-12.4,12.4L1310.1,96.4z"/>
				</g>
				<g id="Vector-85">
					<path id="path20_stroke-2" class="st1" d="M1014.3,638.8l1.1-1.1l-1.1-1.1l-1.1,1.1L1014.3,638.8z M1026.6,651.1l1.1,1.1
						l1.1-1.1l-1.1-1.1L1026.6,651.1z M1014.3,663.5l-1.1,1.1l1.1,1.1l1.1-1.1L1014.3,663.5z M1001.9,651.1l-1.1-1.1l-1.1,1.1
						l1.1,1.1L1001.9,651.1z M1013.2,639.8l12.4,12.4l2.1-2.1l-12.4-12.4L1013.2,639.8z M1025.6,650.1l-12.4,12.4l2.1,2.1l12.4-12.4
						L1025.6,650.1z M1015.3,662.4l-12.4-12.4l-2.1,2.1l12.4,12.4L1015.3,662.4z M1003,652.2l12.4-12.4l-2.1-2.1l-12.4,12.4
						L1003,652.2z"/>
				</g>
				<g id="Vector-86">
					<path id="path41_stroke" class="st1" d="M749.2,511.2l1.1-1.1l-1.1-1.1l-1.1,1.1L749.2,511.2z M756.4,518.4l1.1,1.1l1.1-1.1
						l-1.1-1.1L756.4,518.4z M749.2,525.6l-1.1,1.1l1.1,1.1l1.1-1.1L749.2,525.6z M742,518.4l-1.1-1.1l-1.1,1.1l1.1,1.1L742,518.4z
						 M748.1,512.2l7.2,7.2l2.1-2.1l-7.2-7.2L748.1,512.2z M755.3,517.3l-7.2,7.2l2.1,2.1l7.2-7.2L755.3,517.3z M750.2,524.5
						l-7.2-7.2l-2.1,2.1l7.2,7.2L750.2,524.5z M743.1,519.4l7.2-7.2l-2.1-2.1l-7.2,7.2L743.1,519.4z"/>
				</g>
				<g id="Vector-87">
					<path id="path21_stroke-4" class="st1" d="M920,459.5l0.6-0.6l-0.6-0.6l-0.6,0.6L920,459.5z M927.5,467l0.6,0.6l0.6-0.6
						l-0.6-0.6L927.5,467z M920,474.5l-0.6,0.6l0.6,0.6l0.6-0.6L920,474.5z M912.5,467l-0.6-0.6l-0.6,0.6l0.6,0.6L912.5,467z
						 M919.4,460.2l7.5,7.5l1.3-1.3l-7.5-7.5L919.4,460.2z M926.9,466.4l-7.5,7.5l1.3,1.3l7.5-7.5L926.9,466.4z M920.6,473.9
						l-7.5-7.5l-1.3,1.3l7.5,7.5L920.6,473.9z M913.1,467.7l7.5-7.5l-1.3-1.3l-7.5,7.5L913.1,467.7z"/>
				</g>
				<g id="Vector-88">
					<path id="path21_stroke-5" class="st1" d="M714.6,230.5l0.6-0.6l-0.6-0.6l-0.6,0.6L714.6,230.5z M722.1,238l0.6,0.6l0.6-0.6
						l-0.6-0.6L722.1,238z M714.6,245.5l-0.6,0.6l0.6,0.6l0.6-0.6L714.6,245.5z M707.1,238l-0.6-0.6l-0.6,0.6l0.6,0.6L707.1,238z
						 M714,231.2l7.5,7.5l1.3-1.3l-7.5-7.5L714,231.2z M721.5,237.4l-7.5,7.5l1.3,1.3l7.5-7.5L721.5,237.4z M715.3,244.9l-7.5-7.5
						l-1.3,1.3l7.5,7.5L715.3,244.9z M707.8,238.7l7.5-7.5l-1.3-1.3l-7.5,7.5L707.8,238.7z"/>
				</g>
				<g id="Vector-89">
					<path id="path21_stroke-6" class="st1" d="M144.6,210.5l0.6-0.6l-0.6-0.6l-0.6,0.6L144.6,210.5z M152.1,218l0.6,0.6l0.6-0.6
						l-0.6-0.6L152.1,218z M144.6,225.5l-0.6,0.6l0.6,0.6l0.6-0.6L144.6,225.5z M137.1,218l-0.6-0.6l-0.6,0.6l0.6,0.6L137.1,218z
						 M144,211.2l7.5,7.5l1.3-1.3l-7.5-7.5L144,211.2z M151.5,217.4l-7.5,7.5l1.3,1.3l7.5-7.5L151.5,217.4z M145.3,224.9l-7.5-7.5
						l-1.3,1.3l7.5,7.5L145.3,224.9z M137.8,218.7l7.5-7.5l-1.3-1.3l-7.5,7.5L137.8,218.7z"/>
				</g>
				<g id="Vector-90">
					<path id="path22_stroke-3" class="st1" d="M793.5,806.6l1.1-1.1l-1.1-1.1l-1.1,1.1L793.5,806.6z M805.8,818.9l1.1,1.1l1.1-1.1
						l-1.1-1.1L805.8,818.9z M793.5,831.3l-1.1,1.1l1.1,1.1l1.1-1.1L793.5,831.3z M781.1,818.9l-1.1-1.1l-1,1.1l1,1.1L781.1,818.9z
						 M792.4,807.6l12.4,12.4l2.1-2.1l-12.4-12.4L792.4,807.6z M804.8,817.9l-12.4,12.4l2.1,2.1l12.4-12.4L804.8,817.9z
						 M794.5,830.2l-12.4-12.4L780,820l12.4,12.4L794.5,830.2z M782.2,820l12.4-12.4l-2.1-2.1L780,817.9L782.2,820z"/>
				</g>
				<g id="Vector-91">
					<path id="path22_stroke-4" class="st1" d="M162.5,899.5l1.1-1.1l-1.1-1.1l-1.1,1.1L162.5,899.5z M174.9,911.9l1.1,1.1l1.1-1.1
						l-1.1-1.1L174.9,911.9z M162.5,924.3l-1.1,1.1l1.1,1.1l1.1-1.1L162.5,924.3z M150.1,911.9l-1.1-1.1l-1.1,1l1.1,1.1L150.1,911.9
						z M161.4,900.6l12.4,12.4l2.1-2.1l-12.4-12.4L161.4,900.6z M173.8,910.9l-12.4,12.4l2.1,2.1l12.4-12.3L173.8,910.9z
						 M163.6,923.2l-12.4-12.4l-2.1,2.1l12.4,12.4L163.6,923.2z M151.2,913l12.4-12.4l-2.1-2.1l-12.4,12.4L151.2,913z"/>
				</g>
				<g id="Vector-92">
					<path id="path23_stroke-2" class="st1" d="M1300.2,829.5c0,4.1-3.4,7.5-7.5,7.5l0,0v3c5.8,0,10.5-4.7,10.5-10.5H1300.2z
						 M1292.7,837c-4.1,0-7.5-3.4-7.5-7.5l0,0h-3c0,5.8,4.7,10.5,10.5,10.5V837z M1285.2,829.5c0-4.1,3.4-7.5,7.5-7.5v-3
						c-5.8,0-10.5,4.7-10.5,10.5H1285.2z M1292.7,822c4.1,0,7.5,3.4,7.5,7.5h3c0-5.8-4.7-10.5-10.5-10.5V822z"/>
				</g>
				<g id="Vector-93">
					<path id="path24_stroke-2" class="st1" d="M837.6,901c0,2.2-1.8,4-4,4v3c3.9,0,7-3.1,7-7H837.6z M833.6,905c-2.2,0-4-1.8-4-4
						h-3c0,3.9,3.1,7,7,7V905z M829.6,901c0-2.2,1.8-4,4-4v-3c-3.9,0-7,3.1-7,7H829.6z M833.6,897c2.2,0,4,1.8,4,4h3
						c0-3.9-3.1-7-7-7V897z"/>
				</g>
				<g id="Vector-94">
					<path id="path25_stroke-3" class="st1" d="M309.5,257.5l1.1-1.1l-1.1-1.1l-1.1,1.1L309.5,257.5z M321.9,269.9l1.1,1.1l1.1-1.1
						l-1.1-1.1L321.9,269.9z M309.5,282.3l-1.1,1.1l1.1,1.1l1.1-1.1L309.5,282.3z M297.1,269.9l-1.1-1.1l-1.1,1l1.1,1.1L297.1,269.9
						z M308.4,258.6l12.4,12.4l2.1-2.1l-12.4-12.4L308.4,258.6z M320.8,268.9l-12.4,12.4l2.1,2.1l12.4-12.4L320.8,268.9z
						 M310.6,281.2l-12.4-12.4l-2.1,2.1l12.4,12.4L310.6,281.2z M298.2,271l12.4-12.4l-2.1-2.1l-12.4,12.4L298.2,271z"/>
				</g>
				<g id="Vector-95">
					<path id="path25_stroke-4" class="st1" d="M389.5,116.5l1.1-1.1l-1.1-1.1l-1.1,1.1L389.5,116.5z M401.9,128.9l1.1,1.1l1.1-1.1
						l-1.1-1.1L401.9,128.9z M389.5,141.3l-1.1,1.1l1.1,1.1l1.1-1.1L389.5,141.3z M377.1,128.9l-1.1-1.1l-1.1,1.1l1.1,1.1
						L377.1,128.9z M388.4,117.6l12.4,12.4l2.1-2.1l-12.4-12.4L388.4,117.6z M400.8,127.9l-12.4,12.4l2.1,2.1l12.4-12.3L400.8,127.9
						z M390.6,140.2l-12.4-12.4l-2.1,2.1l12.4,12.4L390.6,140.2z M378.2,130l12.4-12.4l-2.1-2.1l-12.4,12.4L378.2,130z"/>
				</g>
				<g id="Vector-96">
					<path id="path26_stroke-2" class="st1" d="M28.4,367.5l0.8-0.8l-0.8-0.8l-0.8,0.8L28.4,367.5z M37.8,376.9l0.8,0.8l0.8-0.8
						l-0.8-0.8L37.8,376.9z M28.4,386.4l-0.8,0.8l0.8,0.8l0.8-0.8L28.4,386.4z M18.9,376.9l-0.8-0.8l-0.8,0.8l0.8,0.8L18.9,376.9z
						 M27.5,368.3l9.5,9.5l1.6-1.6l-9.5-9.5L27.5,368.3z M37,376.1l-9.5,9.5l1.6,1.6l9.5-9.5L37,376.1z M29.1,385.6l-9.5-9.5
						l-1.6,1.6l9.5,9.5L29.1,385.6z M19.7,377.8l9.5-9.5l-1.6-1.6l-9.5,9.5L19.7,377.8z"/>
				</g>
				<g id="Vector-97">
					<path id="path27_stroke-2" class="st1" d="M15.4,681.5l1.1-1.1l-1.1-1.1l-1.1,1.1L15.4,681.5z M27.7,693.9l1.1,1.1l1.1-1.1
						l-1.1-1.1L27.7,693.9z M15.4,706.3l-1.1,1.1l1.1,1.1l1.1-1.1L15.4,706.3z M3,693.9l-1.1-1.1l-1.1,1.1l1.1,1.1L3,693.9z
						 M14.3,682.6L26.7,695l2.1-2.1l-12.4-12.4L14.3,682.6z M26.7,692.8l-12.4,12.4l2.1,2.1L28.8,695L26.7,692.8z M16.4,705.2
						L4.1,692.8L1.9,695l12.4,12.4L16.4,705.2z M4.1,695l12.4-12.4l-2.1-2.1L1.9,692.8L4.1,695z"/>
				</g>
				<g id="Vector-98">
					<path id="path28_stroke-2" class="st1" d="M1276.9,320.4l1.1-1.1l-1.1-1.1l-1.1,1.1L1276.9,320.4z M1289.3,332.8l1.1,1.1
						l1.1-1.1l-1.1-1.1L1289.3,332.8z M1276.9,345.1l-1.1,1.1l1.1,1.1l1.1-1.1L1276.9,345.1z M1264.5,332.8l-1.1-1.1l-1.1,1.1
						l1.1,1.1L1264.5,332.8z M1275.8,321.5l12.4,12.4l2.1-2.1l-12.3-12.4L1275.8,321.5z M1288.2,331.7l-12.4,12.4l2.1,2.1l12.4-12.4
						L1288.2,331.7z M1278,344.1l-12.4-12.4l-2.1,2.1l12.4,12.4L1278,344.1z M1265.6,333.8l12.4-12.4l-2.1-2.1l-12.4,12.4
						L1265.6,333.8z"/>
				</g>
				<g id="Vector-99">
					<path id="path29_stroke-2" class="st1" d="M1051.2,794.5V793h-1.5v1.5L1051.2,794.5z M1068.7,794.5h1.5V793h-1.5V794.5z
						 M1068.7,812v1.5h1.5V812L1068.7,812z M1051.2,812h-1.5v1.5h1.5V812z M1051.2,796h17.5v-3h-17.5V796z M1067.2,794.5V812h3
						v-17.5L1067.2,794.5z M1068.7,810.5h-17.5v3h17.5V810.5z M1052.7,812v-17.5h-3V812L1052.7,812z"/>
				</g>
				<g id="Vector-100">
					<path id="path30_stroke-2" class="st1" d="M1137.1,892.5V891h-1.5v1.5L1137.1,892.5z M1149.1,892.5h1.5V891h-1.5V892.5z
						 M1149.1,904.5v1.5h1.5v-1.5L1149.1,904.5z M1137.1,904.5h-1.5v1.5h1.5V904.5z M1137.1,894h12v-3h-12V894z M1147.6,892.5v12h3
						v-12H1147.6z M1149.1,903h-12v3h12V903z M1138.6,904.5v-12h-3v12H1138.6z"/>
				</g>
				<g id="Vector-101">
					<path id="path31_stroke-3" class="st1" d="M1151.2,518.4v-1.5h-1.5v1.5H1151.2z M1168.7,518.4h1.5v-1.5h-1.5V518.4z
						 M1168.7,535.9v1.5h1.5v-1.5H1168.7z M1151.2,535.9h-1.5v1.5h1.5V535.9z M1151.2,519.9h17.5v-3h-17.5V519.9z M1167.2,518.4
						v17.5h3v-17.5H1167.2z M1168.7,534.4h-17.5v3h17.5V534.4z M1152.7,535.9v-17.5h-3v17.5H1152.7z"/>
				</g>
				<g id="Vector-102">
					<path id="path31_stroke-4" class="st1" d="M605,485v-1.5h-1.5v1.5H605z M622.5,485h1.5v-1.5h-1.5V485z M622.5,502.5v1.5h1.5
						v-1.5H622.5z M605,502.5h-1.5v1.5h1.5V502.5z M605,486.5h17.5v-3H605V486.5z M621,485v17.5h3V485H621z M622.5,501H605v3h17.5
						V501z M606.5,502.5V485h-3v17.5H606.5z"/>
				</g>
				<g id="Vector-103">
					<path id="path31_stroke-5" class="st1" d="M1341.2,578.4v-1.5h-1.5v1.5H1341.2z M1358.7,578.4h1.5v-1.5h-1.5V578.4z
						 M1358.7,595.9v1.5h1.5v-1.5H1358.7z M1341.2,595.9h-1.5v1.5h1.5V595.9z M1341.2,579.9h17.5v-3h-17.5V579.9z M1357.2,578.4
						v17.5h3v-17.5H1357.2z M1358.7,594.4h-17.5v3h17.5V594.4z M1342.7,595.9v-17.5h-3v17.5H1342.7z"/>
				</g>
				<g id="Vector-104">
					<path id="path32_fill-3" class="st1" d="M1180.8,452.1c2.1-0.1,3.9-1.5,4.7-3.4c0.3-0.7,1-1.2,1.8-1.3c0.8,0,1.5,0.5,1.8,1.3
						c0.9,2.6,3.7,4,6.3,3.1c1.5-0.5,2.7-1.7,3.1-3.1c0.3-0.7,1-1.2,1.8-1.3c0.8,0,1.5,0.5,1.8,1.3c0.9,2.6,3.7,4,6.3,3.1
						c1.5-0.5,2.7-1.7,3.1-3.1c0.3-0.7,1-1.2,1.8-1.3c0.8,0,1.5,0.5,1.8,1.3c0.9,2.6,3.7,4,6.3,3.1c1.5-0.5,2.7-1.7,3.1-3.1
						c0.5-1,0.2-2.1-0.6-2.8c-0.7-0.5-1.7-0.3-2.2,0.4c-0.1,0.1-0.1,0.2-0.1,0.3c-0.3,0.7-1,1.2-1.8,1.3c-0.8,0-1.5-0.5-1.8-1.3
						c-0.9-2.6-3.7-4-6.3-3.1c-1.5,0.5-2.7,1.7-3.1,3.1c-0.3,0.7-1,1.2-1.8,1.3c-0.8,0-1.5-0.5-1.8-1.3c-0.9-2.6-3.7-4-6.3-3.1
						c-1.5,0.5-2.7,1.7-3.1,3.1c-0.3,0.7-1,1.2-1.8,1.3c-0.8,0-1.5-0.5-1.8-1.3c-0.9-2.6-3.7-4-6.3-3.1c-1.5,0.5-2.7,1.7-3.1,3.1
						c-0.3,0.7-1,1.2-1.8,1.3c-0.8,0-1.5-0.5-1.8-1.3c-0.3-0.8-1.1-1.2-1.9-0.9c-0.1,0.1-0.3,0.1-0.4,0.2c-0.8,0.7-1.1,1.8-0.6,2.8
						C1176.9,450.7,1178.7,452,1180.8,452.1z"/>
				</g>
				<g id="Vector-105">
					<path id="path32_fill-4" class="st1" d="M686.6,896.3c1.6,1.4,3.8,1.7,5.7,0.9c0.7-0.3,1.6-0.2,2.2,0.3
						c0.6,0.6,0.7,1.5,0.3,2.2c-1.2,2.4-0.3,5.4,2.2,6.7c1.4,0.7,3.1,0.7,4.5,0c0.7-0.3,1.6-0.2,2.2,0.3c0.5,0.6,0.7,1.5,0.3,2.2
						c-1.2,2.4-0.3,5.4,2.2,6.7c1.4,0.7,3.1,0.7,4.5,0c0.7-0.3,1.6-0.2,2.2,0.3c0.6,0.6,0.7,1.5,0.3,2.2c-1.2,2.4-0.3,5.4,2.2,6.7
						c1.4,0.7,3.1,0.7,4.5,0c1-0.3,1.7-1.3,1.6-2.4c-0.2-0.8-1-1.4-1.8-1.2c-0.1,0-0.2,0.1-0.3,0.1c-0.7,0.3-1.6,0.2-2.2-0.3
						c-0.5-0.6-0.7-1.5-0.3-2.2c1.2-2.4,0.3-5.4-2.2-6.7c-1.4-0.7-3.1-0.7-4.5,0c-0.7,0.3-1.6,0.2-2.2-0.3c-0.6-0.6-0.7-1.5-0.3-2.2
						c1.2-2.4,0.3-5.4-2.2-6.7c-1.4-0.7-3.1-0.7-4.5,0c-0.7,0.3-1.6,0.2-2.2-0.3c-0.6-0.6-0.7-1.5-0.3-2.2c1.2-2.4,0.3-5.4-2.2-6.7
						c-1.4-0.7-3.1-0.7-4.5,0c-0.7,0.3-1.6,0.2-2.2-0.3c-0.6-0.6-0.7-1.5-0.3-2.2c0.4-0.7,0-1.6-0.7-2c-0.1-0.1-0.3-0.1-0.4-0.1
						c-1.1-0.1-2.1,0.5-2.4,1.6C684.9,892.5,685.3,894.8,686.6,896.3z"/>
				</g>
				<g id="Vector-106">
					<path id="path33_fill-2" class="st1" d="M867.7,216c0.7,0.6,1.6,0.7,2.4,0.4c0.4-0.1,0.7-0.1,0.9,0.2c0.2,0.2,0.3,0.6,0.2,0.9
						c-0.5,1-0.1,2.3,0.9,2.8c0.6,0.3,1.3,0.3,1.9,0c0.4-0.1,0.7-0.1,0.9,0.2c0.2,0.2,0.3,0.6,0.2,0.9c-0.5,1-0.1,2.3,0.9,2.8
						c0.6,0.3,1.3,0.3,1.9,0c0.4-0.1,0.7-0.1,0.9,0.2c0.2,0.2,0.3,0.6,0.2,0.9c-0.5,1-0.1,2.3,0.9,2.8c0.6,0.3,1.3,0.3,1.9,0
						c0.4-0.2,0.7-0.6,0.7-1c-0.1-0.3-0.4-0.5-0.7-0.5c-0.1,0-0.1,0-0.2,0.1c-0.4,0.1-0.7,0.1-0.9-0.2c-0.2-0.2-0.3-0.6-0.2-0.9
						c0.5-1,0.1-2.3-0.9-2.8c-0.6-0.3-1.3-0.3-1.9,0c-0.4,0.1-0.7,0.1-0.9-0.2c-0.2-0.2-0.3-0.6-0.2-0.9c0.5-1,0.1-2.3-0.9-2.8
						c-0.6-0.3-1.3-0.3-1.9,0c-0.4,0.1-0.7,0.1-0.9-0.2c-0.2-0.2-0.3-0.6-0.2-0.9c0.5-1,0.1-2.3-0.9-2.8c-0.6-0.3-1.3-0.3-1.9,0
						c-0.4,0.1-0.7,0.1-0.9-0.2c-0.2-0.2-0.3-0.6-0.2-0.9c0.2-0.3,0.1-0.7-0.2-0.8c-0.1,0-0.2-0.1-0.3-0.1c-0.5-0.1-0.9,0.2-1,0.7
						C867,214.5,867.2,215.4,867.7,216z"/>
				</g>
				<g id="Vector-107">
					<path id="path34_fill-2" class="st1" d="M1266.6,222.4c0.9,0,1.7-0.6,2-1.4c0.2-0.3,0.5-0.6,0.8-0.6c0.4,0,0.7,0.3,0.8,0.6
						c0.4,1.1,1.6,1.7,2.7,1.3c0.6-0.2,1.1-0.7,1.3-1.3c0.2-0.3,0.5-0.6,0.8-0.6c0.4,0,0.7,0.3,0.8,0.6c0.4,1.1,1.6,1.7,2.7,1.3
						c0.6-0.2,1.1-0.7,1.3-1.3c0.2-0.3,0.5-0.6,0.8-0.6c0.4,0,0.7,0.3,0.8,0.6c0.4,1.1,1.6,1.7,2.7,1.3c0.6-0.2,1.1-0.7,1.3-1.3
						c0.2-0.4,0.1-0.9-0.3-1.2c-0.3-0.2-0.6-0.1-0.8,0.1c0,0-0.1,0.1-0.1,0.2c-0.2,0.3-0.5,0.6-0.8,0.6c-0.4,0-0.7-0.3-0.8-0.6
						c-0.4-1.1-1.6-1.7-2.7-1.3c-0.6,0.2-1.1,0.7-1.3,1.3c-0.2,0.3-0.5,0.6-0.8,0.6c-0.4,0-0.7-0.3-0.8-0.6
						c-0.4-1.1-1.6-1.7-2.7-1.3c-0.6,0.2-1.1,0.7-1.3,1.3c-0.2,0.3-0.5,0.6-0.8,0.6c-0.4,0-0.7-0.3-0.8-0.6
						c-0.4-1.1-1.6-1.7-2.7-1.3c-0.6,0.2-1.1,0.7-1.3,1.3c-0.2,0.3-0.5,0.6-0.8,0.6c-0.4,0-0.7-0.3-0.8-0.6
						c-0.2-0.4-0.6-0.6-0.9-0.3c-0.3,0.3-0.4,0.8-0.2,1.2C1265,221.8,1265.8,222.3,1266.6,222.4z"/>
				</g>
				<g id="Vector-108">
					<path id="path35_fill-2" class="st1" d="M1310.3,723.4c1.4-1.5,1.8-3.8,0.9-5.7c-0.4-0.7-0.2-1.6,0.4-2.2
						c0.6-0.5,1.4-0.7,2.2-0.4c1.9,0.8,4.1,0.5,5.7-0.9c1.4-1.5,1.8-3.8,0.9-5.7c-0.3-0.7-0.2-1.6,0.4-2.2c0.6-0.5,1.4-0.7,2.2-0.4
						c1.9,0.8,4.1,0.5,5.7-0.9c1.4-1.5,1.8-3.8,0.9-5.7c-0.4-0.7-0.2-1.6,0.4-2.2c0.6-0.5,1.4-0.7,2.2-0.4c1.9,0.8,4.1,0.5,5.7-0.9
						c1.4-1.5,1.8-3.8,0.9-5.7c-0.4-1-1.3-1.6-2.4-1.6c-0.8,0.2-1.4,0.9-1.2,1.8c0,0.1,0.1,0.2,0.1,0.3c0.3,0.7,0.2,1.6-0.4,2.2
						c-0.6,0.5-1.4,0.7-2.2,0.4c-1.9-0.8-4.1-0.5-5.7,0.9c-1.4,1.5-1.8,3.8-0.9,5.7c0.4,0.7,0.2,1.6-0.4,2.2
						c-0.6,0.5-1.4,0.7-2.2,0.4c-1.9-0.8-4.1-0.5-5.7,0.9c-1.4,1.5-1.8,3.8-0.9,5.7c0.4,0.7,0.2,1.6-0.4,2.2
						c-0.6,0.5-1.4,0.7-2.2,0.4c-1.9-0.8-4.1-0.5-5.7,0.9c-1.4,1.5-1.8,3.8-0.9,5.7c0.4,0.7,0.2,1.6-0.4,2.2
						c-0.6,0.5-1.4,0.7-2.2,0.4c-0.7-0.4-1.6-0.1-1.9,0.6c-0.1,0.2-0.1,0.3-0.2,0.5c-0.1,1.1,0.5,2.1,1.6,2.4
						C1306.5,725.1,1308.7,724.8,1310.3,723.4z"/>
				</g>
				<g id="Vector-109">
					<path id="path36_fill-3" class="st1" d="M985.9,519.9c1.4-1.5,1.8-3.8,0.9-5.7c-0.4-0.7-0.2-1.6,0.4-2.2
						c0.6-0.5,1.4-0.7,2.2-0.4c1.9,0.8,4.1,0.5,5.7-0.9c1.4-1.5,1.8-3.8,0.9-5.7c-0.3-0.7-0.2-1.6,0.4-2.2c0.6-0.5,1.4-0.7,2.2-0.4
						c1.9,0.8,4.1,0.5,5.7-0.9c1.4-1.5,1.8-3.8,0.9-5.7c-0.4-0.7-0.2-1.6,0.4-2.2c0.6-0.5,1.4-0.7,2.2-0.4c1.9,0.8,4.1,0.5,5.7-0.9
						c1.4-1.5,1.8-3.8,0.9-5.7c-0.4-1-1.3-1.6-2.4-1.6c-0.8,0.2-1.4,0.9-1.2,1.8c0,0.1,0.1,0.2,0.1,0.3c0.3,0.7,0.2,1.6-0.4,2.2
						c-0.6,0.5-1.4,0.7-2.2,0.4c-1.9-0.8-4.1-0.5-5.7,0.9c-1.4,1.5-1.8,3.8-0.9,5.7c0.4,0.7,0.2,1.6-0.4,2.2
						c-0.6,0.5-1.4,0.7-2.2,0.4c-1.9-0.8-4.1-0.5-5.7,0.9c-1.4,1.5-1.8,3.8-0.9,5.7c0.4,0.7,0.2,1.6-0.4,2.2
						c-0.6,0.5-1.4,0.7-2.2,0.4c-1.9-0.8-4.1-0.5-5.7,0.9c-1.4,1.5-1.8,3.8-0.9,5.7c0.4,0.7,0.2,1.6-0.4,2.2
						c-0.6,0.5-1.4,0.7-2.2,0.4c-0.7-0.4-1.6-0.1-1.9,0.6c-0.1,0.2-0.1,0.3-0.2,0.5c-0.1,1.1,0.5,2.1,1.6,2.4
						C982.1,521.6,984.3,521.3,985.9,519.9z"/>
				</g>
				<g id="Vector-110">
					<path id="path36_fill-4" class="st1" d="M31.7,495.9c2.1-0.1,3.9-1.4,4.7-3.4c0.3-0.8,1-1.3,1.8-1.3c0.8,0,1.5,0.5,1.8,1.3
						c0.8,1.9,2.6,3.2,4.7,3.4c2.1-0.1,3.9-1.4,4.7-3.4c0.3-0.8,1-1.3,1.8-1.3c0.8,0,1.5,0.5,1.8,1.3c0.8,1.9,2.6,3.2,4.7,3.4
						c2.1-0.1,3.9-1.4,4.7-3.4c0.3-0.8,1-1.3,1.8-1.3c0.8,0,1.5,0.5,1.8,1.3c0.8,1.9,2.6,3.2,4.7,3.4c2.1-0.1,3.9-1.4,4.7-3.4
						c0.4-1,0.2-2.1-0.6-2.8c-0.7-0.5-1.6-0.3-2.1,0.4c-0.1,0.1-0.1,0.2-0.2,0.3c-0.3,0.8-1,1.3-1.8,1.3c-0.8,0-1.5-0.5-1.8-1.3
						c-0.8-1.9-2.6-3.2-4.7-3.4c-2.1,0.1-3.9,1.4-4.7,3.4c-0.3,0.8-1,1.3-1.8,1.3c-0.8,0-1.5-0.5-1.8-1.3c-0.8-1.9-2.6-3.2-4.7-3.4
						c-2.1,0.1-3.9,1.4-4.7,3.4c-0.3,0.8-1,1.3-1.8,1.3c-0.8,0-1.5-0.5-1.8-1.3c-0.8-1.9-2.6-3.2-4.7-3.4c-2.1,0.1-3.9,1.4-4.7,3.4
						c-0.3,0.8-1,1.3-1.8,1.3c-0.8,0-1.5-0.5-1.8-1.3c-0.2-0.8-1-1.2-1.8-0.9c-0.2,0.1-0.3,0.1-0.5,0.2c-0.9,0.7-1.1,1.9-0.6,2.8
						C27.9,494.4,29.7,495.7,31.7,495.9z"/>
				</g>
				<g id="Vector-111">
					<path id="path37_fill-2" class="st1" d="M838.3,563.9c0.7,0.6,1.7,0.8,2.5,0.4c0.4-0.1,0.8-0.1,1,0.2c0.2,0.3,0.3,0.7,0.2,1
						c-0.4,0.8-0.2,1.8,0.4,2.5c0.7,0.6,1.7,0.8,2.5,0.4c0.4-0.1,0.8-0.1,1,0.2c0.2,0.3,0.3,0.7,0.2,1c-0.4,0.8-0.2,1.8,0.4,2.5
						c0.7,0.6,1.7,0.8,2.5,0.4c0.4-0.1,0.8-0.1,1,0.2c0.2,0.3,0.3,0.7,0.2,1c-0.4,0.8-0.2,1.8,0.4,2.5c0.7,0.6,1.7,0.8,2.5,0.4
						c0.5-0.1,0.8-0.6,0.7-1.1c-0.1-0.4-0.5-0.6-0.9-0.5c0,0,0,0,0,0c-0.4,0.1-0.8,0.1-1-0.2c-0.2-0.3-0.3-0.7-0.2-1
						c0.4-0.8,0.2-1.8-0.4-2.5c-0.7-0.6-1.7-0.8-2.5-0.4c-0.4,0.1-0.8,0.1-1-0.2c-0.2-0.3-0.3-0.7-0.2-1c0.4-0.8,0.2-1.8-0.4-2.5
						c-0.7-0.6-1.7-0.8-2.5-0.4c-0.4,0.1-0.8,0.1-1-0.2c-0.2-0.3-0.3-0.7-0.2-1c0.4-0.8,0.2-1.8-0.4-2.5c-0.7-0.6-1.7-0.8-2.5-0.4
						c-0.4,0.1-0.8,0.1-1-0.2c-0.2-0.3-0.3-0.7-0.2-1c0.2-0.5,0-0.9-0.5-0.9c-0.5-0.1-1,0.2-1.1,0.7
						C837.5,562.2,837.7,563.2,838.3,563.9z"/>
				</g>
				<g id="Vector-112">
					<path id="path38_fill-2" class="st1" d="M1108.4,267.2c1.4-1.5,1.8-3.8,0.9-5.7c-0.4-0.7-0.2-1.6,0.4-2.2
						c0.6-0.5,1.4-0.7,2.2-0.4c1.9,0.8,4.1,0.5,5.7-0.9c1.4-1.5,1.8-3.8,0.9-5.7c-0.3-0.7-0.2-1.6,0.4-2.2c0.6-0.5,1.4-0.7,2.2-0.4
						c1.9,0.8,4.1,0.5,5.7-0.9c1.4-1.5,1.8-3.8,0.9-5.7c-0.4-0.7-0.2-1.6,0.4-2.2c0.6-0.5,1.4-0.7,2.2-0.4c1.9,0.8,4.1,0.5,5.7-0.9
						c1.4-1.5,1.8-3.8,0.9-5.7c-0.4-1-1.3-1.6-2.4-1.6c-0.8,0.2-1.4,0.9-1.2,1.8c0,0.1,0.1,0.2,0.1,0.3c0.3,0.7,0.2,1.6-0.4,2.2
						c-0.6,0.5-1.4,0.7-2.2,0.4c-1.9-0.8-4.1-0.5-5.7,0.9c-1.4,1.5-1.8,3.8-0.9,5.7c0.4,0.7,0.2,1.6-0.4,2.2
						c-0.6,0.5-1.4,0.7-2.2,0.4c-1.9-0.8-4.1-0.5-5.7,0.9c-1.4,1.5-1.8,3.8-0.9,5.7c0.4,0.7,0.2,1.6-0.4,2.2
						c-0.6,0.5-1.4,0.7-2.2,0.4c-1.9-0.8-4.1-0.5-5.7,0.9c-1.4,1.5-1.8,3.8-0.9,5.7c0.4,0.7,0.2,1.6-0.4,2.2
						c-0.6,0.5-1.4,0.7-2.2,0.4c-0.7-0.4-1.6-0.1-1.9,0.6c-0.1,0.2-0.1,0.3-0.2,0.5c-0.1,1.1,0.5,2.1,1.6,2.4
						C1104.6,268.9,1106.8,268.6,1108.4,267.2z"/>
				</g>
				<g id="Vector-113">
					<path id="path38_fill-3" class="st1" d="M1004.3,34.9c1.4-1.5,1.8-3.8,0.9-5.7c-0.4-0.7-0.2-1.6,0.4-2.2
						c0.6-0.5,1.4-0.7,2.2-0.4c1.9,0.8,4.1,0.5,5.7-0.9c1.4-1.5,1.8-3.8,0.9-5.7c-0.3-0.7-0.2-1.6,0.4-2.2c0.6-0.5,1.4-0.7,2.2-0.4
						c1.9,0.8,4.1,0.5,5.7-0.9c1.4-1.5,1.8-3.8,0.9-5.7c-0.4-0.7-0.2-1.6,0.4-2.2c0.6-0.5,1.4-0.7,2.2-0.4c1.9,0.8,4.1,0.5,5.7-0.9
						c1.4-1.5,1.8-3.8,0.9-5.7c-0.4-1-1.3-1.6-2.4-1.6c-0.8,0.2-1.4,0.9-1.2,1.8c0,0.1,0.1,0.2,0.1,0.3c0.3,0.7,0.2,1.6-0.4,2.2
						c-0.6,0.5-1.4,0.7-2.2,0.4c-1.9-0.8-4.1-0.5-5.7,0.9c-1.4,1.5-1.8,3.8-0.9,5.7c0.4,0.7,0.2,1.6-0.4,2.2
						c-0.6,0.5-1.4,0.7-2.2,0.4c-1.9-0.8-4.1-0.5-5.7,0.9c-1.4,1.5-1.8,3.8-0.9,5.7c0.4,0.7,0.2,1.6-0.4,2.2
						c-0.6,0.5-1.4,0.7-2.2,0.4c-1.9-0.8-4.1-0.5-5.7,0.9c-1.4,1.5-1.8,3.8-0.9,5.7c0.4,0.7,0.2,1.6-0.4,2.2
						c-0.6,0.5-1.4,0.7-2.2,0.4c-0.7-0.4-1.6-0.1-1.9,0.6c-0.1,0.2-0.1,0.3-0.2,0.5c-0.1,1.1,0.5,2.1,1.6,2.4
						C1000.5,36.6,1002.8,36.3,1004.3,34.9z"/>
				</g>
				<g id="Vector-114">
					<path id="path39_fill-3" class="st1" d="M603.9,287c2.1-0.1,3.9-1.5,4.7-3.4c0.3-0.7,1-1.2,1.8-1.3c0.8,0,1.5,0.5,1.8,1.3
						c0.9,2.6,3.7,4,6.3,3.1c1.5-0.5,2.7-1.7,3.1-3.1c0.3-0.7,1-1.2,1.8-1.3c0.8,0,1.5,0.5,1.8,1.3c0.9,2.6,3.7,4,6.3,3.1
						c1.5-0.5,2.7-1.7,3.1-3.1c0.3-0.7,1-1.2,1.8-1.3c0.8,0,1.5,0.5,1.8,1.3c0.9,2.6,3.7,4,6.3,3.1c1.5-0.5,2.7-1.7,3.1-3.1
						c0.5-1,0.2-2.1-0.6-2.8c-0.7-0.5-1.7-0.3-2.2,0.4c-0.1,0.1-0.1,0.2-0.1,0.3c-0.3,0.7-1,1.2-1.8,1.3c-0.8,0-1.5-0.5-1.8-1.3
						c-0.9-2.6-3.7-4-6.3-3.1c-1.5,0.5-2.7,1.7-3.1,3.1c-0.3,0.7-1,1.2-1.8,1.3c-0.8,0-1.5-0.5-1.8-1.3c-0.9-2.6-3.7-4-6.3-3.1
						c-1.5,0.5-2.7,1.7-3.1,3.1c-0.3,0.7-1,1.2-1.8,1.3c-0.8,0-1.5-0.5-1.8-1.3c-0.9-2.6-3.7-4-6.3-3.1c-1.5,0.5-2.7,1.7-3.1,3.1
						c-0.3,0.7-1,1.2-1.8,1.3c-0.8,0-1.5-0.5-1.8-1.3c-0.3-0.8-1.1-1.2-1.9-0.9c-0.1,0.1-0.3,0.1-0.4,0.2c-0.8,0.7-1.1,1.8-0.6,2.8
						C600,285.5,601.8,286.9,603.9,287z"/>
				</g>
				<g id="Vector-115">
					<path id="path39_fill-4" class="st1" d="M418.9,333.9c1.4-1.6,1.7-3.8,0.9-5.7c-0.3-0.7-0.2-1.6,0.4-2.2
						c0.6-0.6,1.5-0.7,2.2-0.4c2.4,1.2,5.4,0.2,6.6-2.2c0.7-1.4,0.7-3,0-4.4c-0.3-0.7-0.2-1.6,0.4-2.2c0.6-0.5,1.5-0.7,2.2-0.4
						c2.4,1.2,5.4,0.3,6.6-2.2c0.7-1.4,0.7-3.1,0-4.5c-0.3-0.7-0.2-1.6,0.4-2.2c0.6-0.6,1.5-0.7,2.2-0.4c2.4,1.2,5.4,0.3,6.6-2.2
						c0.7-1.4,0.7-3.1,0-4.5c-0.3-1-1.3-1.7-2.4-1.6c-0.8,0.2-1.4,1-1.2,1.8c0,0.1,0.1,0.2,0.1,0.3c0.3,0.7,0.2,1.6-0.4,2.2
						c-0.6,0.5-1.5,0.7-2.2,0.4c-2.4-1.2-5.4-0.3-6.6,2.2c-0.7,1.4-0.7,3.1,0,4.5c0.3,0.7,0.2,1.6-0.4,2.2c-0.6,0.6-1.5,0.7-2.2,0.4
						c-2.4-1.2-5.4-0.3-6.6,2.2c-0.7,1.4-0.7,3.1,0,4.5c0.3,0.7,0.2,1.6-0.4,2.2c-0.6,0.6-1.5,0.7-2.2,0.4c-2.4-1.2-5.4-0.3-6.6,2.2
						c-0.7,1.4-0.7,3.1,0,4.5c0.3,0.7,0.2,1.6-0.4,2.2c-0.6,0.6-1.5,0.7-2.2,0.4c-0.7-0.4-1.6,0-2,0.7c-0.1,0.1-0.1,0.3-0.1,0.4
						c-0.1,1.1,0.5,2.1,1.6,2.4C415.1,335.6,417.3,335.3,418.9,333.9z"/>
				</g>
				<g id="Vector-116">
					<path id="path39_fill-5" class="st1" d="M82.4,114.1c-1.6-1.4-3.8-1.7-5.7-0.9c-0.7,0.3-1.6,0.2-2.2-0.3
						c-0.6-0.6-0.7-1.5-0.3-2.2c1.2-2.5,0.2-5.4-2.3-6.6c-1.4-0.7-3-0.7-4.4,0c-0.7,0.3-1.6,0.2-2.2-0.3c-0.5-0.6-0.7-1.5-0.3-2.2
						c1.2-2.4,0.3-5.4-2.2-6.7c-1.4-0.7-3.1-0.7-4.5,0c-0.7,0.3-1.6,0.2-2.2-0.3c-0.6-0.6-0.7-1.5-0.3-2.2c1.2-2.4,0.3-5.4-2.2-6.7
						c-1.4-0.7-3.1-0.7-4.5,0c-1,0.3-1.7,1.3-1.6,2.4c0.2,0.8,1,1.4,1.8,1.2c0.1,0,0.2-0.1,0.3-0.1c0.7-0.3,1.6-0.2,2.2,0.3
						c0.5,0.6,0.7,1.5,0.3,2.2c-1.2,2.4-0.3,5.4,2.2,6.7c1.4,0.7,3.1,0.7,4.5,0c0.7-0.3,1.6-0.2,2.2,0.3c0.6,0.6,0.7,1.5,0.3,2.2
						c-1.2,2.4-0.2,5.4,2.2,6.6c1.4,0.7,3,0.7,4.4,0c0.7-0.3,1.6-0.2,2.2,0.3c0.6,0.6,0.7,1.5,0.3,2.2c-1.2,2.4-0.3,5.4,2.2,6.7
						c1.4,0.7,3.1,0.7,4.5,0c0.7-0.3,1.6-0.2,2.2,0.3c0.6,0.6,0.7,1.5,0.3,2.2c-0.4,0.7,0,1.6,0.7,2c0.1,0.1,0.3,0.1,0.4,0.1
						c1.1,0.1,2.1-0.5,2.4-1.6C84.1,117.9,83.7,115.6,82.4,114.1z"/>
				</g>
				<g id="Vector-117">
					<path id="path39_fill-6" class="st1" d="M391.8,700.4c1.4-1.6,1.7-3.8,0.9-5.7c-0.3-0.7-0.2-1.6,0.4-2.2
						c0.6-0.6,1.5-0.7,2.2-0.3c2.4,1.2,5.4,0.3,6.6-2.2c0.7-1.4,0.7-3.1,0-4.5c-0.3-0.7-0.2-1.6,0.4-2.2c0.6-0.5,1.5-0.7,2.2-0.3
						c2.4,1.2,5.4,0.3,6.6-2.2c0.7-1.4,0.7-3.1,0-4.5c-0.3-0.7-0.2-1.6,0.4-2.2c0.6-0.6,1.5-0.7,2.2-0.3c2.4,1.2,5.4,0.3,6.6-2.2
						c0.7-1.4,0.7-3.1,0-4.5c-0.3-1-1.3-1.7-2.4-1.6c-0.8,0.2-1.4,1-1.2,1.8c0,0.1,0.1,0.2,0.1,0.3c0.3,0.7,0.2,1.6-0.4,2.2
						c-0.6,0.5-1.5,0.7-2.2,0.3c-2.4-1.2-5.4-0.3-6.6,2.2c-0.7,1.4-0.7,3.1,0,4.5c0.3,0.7,0.2,1.6-0.4,2.2c-0.6,0.6-1.5,0.7-2.2,0.3
						c-2.4-1.2-5.4-0.3-6.6,2.2c-0.7,1.4-0.7,3.1,0,4.5c0.3,0.7,0.2,1.6-0.4,2.2c-0.6,0.6-1.5,0.7-2.2,0.3c-2.4-1.2-5.4-0.3-6.6,2.2
						c-0.7,1.4-0.7,3.1,0,4.5c0.3,0.7,0.2,1.6-0.4,2.2c-0.6,0.6-1.5,0.7-2.2,0.3c-0.7-0.4-1.6,0-2,0.7c-0.1,0.1-0.1,0.3-0.1,0.4
						c-0.1,1.1,0.5,2.1,1.6,2.4C388,702.1,390.2,701.7,391.8,700.4z"/>
				</g>
				<g id="Vector-118">
					<path id="path40_fill-2" class="st1" d="M14.1,831c2.1-0.1,3.9-1.5,4.7-3.4c0.3-0.7,1-1.2,1.8-1.3c0.8,0,1.5,0.5,1.8,1.3
						c0.8,1.9,2.6,3.3,4.7,3.4c2.1-0.1,3.9-1.5,4.7-3.4c0.3-0.7,1-1.2,1.8-1.3c0.8,0,1.5,0.5,1.8,1.3c0.8,1.9,2.6,3.3,4.7,3.4
						c2.1-0.1,3.9-1.5,4.7-3.4c0.3-0.7,1-1.2,1.8-1.3c0.8,0,1.5,0.5,1.8,1.3c0.8,1.9,2.6,3.3,4.7,3.4c2.1-0.1,3.9-1.5,4.7-3.4
						c0.5-1,0.2-2.1-0.6-2.8c-0.7-0.5-1.7-0.3-2.2,0.4c-0.1,0.1-0.1,0.2-0.1,0.3c-0.3,0.7-1,1.2-1.8,1.3c-0.8,0-1.5-0.5-1.8-1.3
						c-0.8-1.9-2.6-3.3-4.7-3.4c-2.1,0.1-3.9,1.5-4.7,3.4c-0.3,0.7-1,1.2-1.8,1.3c-0.8,0-1.5-0.5-1.8-1.3c-0.8-1.9-2.6-3.3-4.7-3.4
						c-2.1,0.1-3.9,1.5-4.7,3.4c-0.3,0.7-1,1.2-1.8,1.3c-0.8,0-1.5-0.5-1.8-1.3c-0.8-1.9-2.6-3.3-4.7-3.4c-2.1,0.1-3.9,1.5-4.7,3.4
						c-0.3,0.7-1,1.2-1.8,1.3c-0.8,0-1.5-0.5-1.8-1.3c-0.3-0.8-1.1-1.2-1.9-0.9c-0.1,0.1-0.3,0.1-0.4,0.2c-0.8,0.7-1.1,1.8-0.6,2.8
						C10.2,829.5,12,830.9,14.1,831z"/>
				</g>
			</g>
		</g>
	</g>
</g>
</svg>
